<svg width="114" height="32" viewBox="0 0 114 32" fill="none" xmlns="http://www.w3.org/2000/svg">
<path d="M63.1617 3.37894L55.9967 18.9066H55.267V0H45.0859V31.9962H53.728C55.9967 31.9962 58.0567 30.6773 59.0089 28.6173L66.1777 13.0896H66.9036V31.9962H77.0847V0H68.4451C66.1752 0 64.114 1.31768 63.1617 3.37894Z" fill="#20AA4D"/>
<path d="M24.9652 4.20597L20.7251 18.9091H19.9979L15.7566 4.20597C15.037 1.71602 12.7583 0 10.1672 0H0V31.9987H10.1785V13.0896H10.9082L16.7252 31.9987H23.9978L29.8148 13.0896H30.5419V31.9987H40.723V0H30.5559C27.9647 0 25.686 1.71602 24.9652 4.20597Z" fill="#20AA4D"/>
<path d="M81.4473 14.5449V31.9998H91.6068V21.8175H102.535C107.282 21.8175 111.31 18.78 112.81 14.5449H81.4473Z" fill="#20AA4D"/>
<path fill-rule="evenodd" clip-rule="evenodd" d="M95.7184 13.0896H113.226C113.368 12.384 113.444 11.6543 113.444 10.9069C113.444 4.88378 108.56 0 102.537 0H79.9922C81.3617 7.4458 87.8768 13.0896 95.7184 13.0896Z" fill="url(#paint0_linear)"/>
<defs>
<linearGradient id="paint0_linear" x1="79.9922" y1="6.54416" x2="113.444" y2="6.54416" gradientUnits="userSpaceOnUse">
<stop stop-color="#00A7E3"/>
<stop offset="0.00392157" stop-color="#0093D4"/>
<stop offset="0.0117647" stop-color="#00A7E3"/>
<stop offset="1" stop-color="#007EC4"/>
</linearGradient>
</defs>
</svg>
