<svg width="163" height="40" viewBox="0 0 163 40" fill="none" xmlns="http://www.w3.org/2000/svg">
<path d="M125.142 8.80469H116.206C115.597 8.80469 115.074 9.24913 114.98 9.85104L111.367 32.7272C111.295 33.178 111.645 33.5856 112.103 33.5856H116.687C117.113 33.5856 117.478 33.2758 117.544 32.8542L118.57 26.3691C118.664 25.7672 119.185 25.3228 119.796 25.3228H122.624C128.51 25.3228 131.905 22.4796 132.793 16.8428C133.192 14.378 132.811 12.4402 131.654 11.0841C130.384 9.59199 128.131 8.80469 125.142 8.80469ZM126.173 17.159C125.685 20.3615 123.235 20.3615 120.866 20.3615H119.517L120.463 14.3831C120.52 14.0212 120.832 13.7545 121.198 13.7545H121.815C123.429 13.7545 124.952 13.7545 125.737 14.6726C126.208 15.2212 126.351 16.0339 126.173 17.159Z" fill="#009CDE"/>
<path d="M61.4133 8.80469H52.4787C51.867 8.80469 51.3468 9.24913 51.2514 9.85104L47.6381 32.7272C47.5669 33.178 47.9167 33.5856 48.3745 33.5856H52.6402C53.2507 33.5856 53.7709 33.1425 53.8663 32.5406L54.8418 26.3691C54.9372 25.7672 55.4573 25.3228 56.0678 25.3228H58.8951C64.7798 25.3228 68.1769 22.4796 69.0659 16.8428C69.4652 14.378 69.0811 12.4402 67.9263 11.0841C66.6545 9.59199 64.4021 8.80469 61.4133 8.80469ZM62.4447 17.159C61.9564 20.3615 59.5068 20.3615 57.1374 20.3615H55.7893L56.7342 14.3831C56.7915 14.0212 57.1043 13.7545 57.4706 13.7545H58.0887C59.7014 13.7545 61.2251 13.7545 62.0098 14.6726C62.4791 15.2212 62.6215 16.0339 62.4447 17.159Z" fill="#003087"/>
<path d="M88.1188 17.0568H83.8417C83.4741 17.0568 83.1625 17.3222 83.1053 17.6841L82.9183 18.8778L82.6182 18.4448C81.6923 17.1013 79.6268 16.6543 77.5652 16.6543C72.8391 16.6543 68.801 20.2302 68.015 25.246C67.6055 27.7489 68.1867 30.14 69.6074 31.8099C70.9123 33.3438 72.7768 33.9813 74.9961 33.9813C78.8052 33.9813 80.919 31.5381 80.919 31.5381L80.7282 32.7254C80.657 33.1762 81.0055 33.5851 81.4633 33.5851H85.317C85.9275 33.5851 86.4476 33.1419 86.5443 32.5413L88.8552 17.9165C88.9264 17.4632 88.5767 17.0568 88.1188 17.0568ZM82.1565 25.3705C81.7431 27.8124 79.8023 29.4492 77.3274 29.4492C76.0861 29.4492 75.0928 29.0505 74.4543 28.2975C73.8209 27.5483 73.5831 26.4829 73.7841 25.2968C74.1694 22.8778 76.142 21.1864 78.5801 21.1864C79.7947 21.1864 80.7804 21.5876 81.4328 22.3508C82.0865 23.1178 82.3447 24.1908 82.1565 25.3705Z" fill="#003087"/>
<path d="M151.847 17.0568H147.57C147.203 17.0568 146.892 17.3222 146.835 17.6841L146.646 18.8778L146.347 18.4448C145.42 17.1013 143.356 16.6543 141.294 16.6543C136.566 16.6543 132.528 20.2302 131.743 25.246C131.335 27.7489 131.915 30.14 133.335 31.8099C134.64 33.3438 136.505 33.9813 138.724 33.9813C142.533 33.9813 144.647 31.5381 144.647 31.5381L144.456 32.7254C144.384 33.1762 144.735 33.5851 145.191 33.5851H149.045C149.654 33.5851 150.176 33.1419 150.271 32.5413L152.583 17.9165C152.654 17.4632 152.305 17.0568 151.847 17.0568ZM145.884 25.3705C145.471 27.8124 143.53 29.4492 141.055 29.4492C139.814 29.4492 138.821 29.0505 138.181 28.2975C137.55 27.5483 137.31 26.4829 137.512 25.2968C137.899 22.8778 139.869 21.1864 142.307 21.1864C143.523 21.1864 144.508 21.5876 145.16 22.3508C145.815 23.1178 146.073 24.1908 145.884 25.3705Z" fill="#009CDE"/>
<path d="M110.907 17.0566H106.606C106.195 17.0566 105.81 17.2598 105.578 17.5989L99.6467 26.3227L97.131 17.9405C96.9746 17.4147 96.49 17.0566 95.9418 17.0566H91.7143C91.2043 17.0566 90.8456 17.5582 91.0084 18.0395L95.7447 31.9176L91.2908 38.1919C90.9423 38.6846 91.2958 39.3652 91.9 39.3652H96.1975C96.6032 39.3652 96.9847 39.1658 97.2175 38.8319L111.52 18.2236C111.861 17.7297 111.508 17.0566 110.907 17.0566Z" fill="#003087"/>
<path d="M156.891 9.43131L153.224 32.7253C153.152 33.1761 153.502 33.5837 153.96 33.5837H157.648C158.258 33.5837 158.778 33.1405 158.874 32.5399L162.49 9.66242C162.561 9.21162 162.211 8.80273 161.755 8.80273H157.626C157.261 8.804 156.948 9.07067 156.891 9.43131Z" fill="#009CDE"/>
<path d="M30.1108 10.0013C30.5916 6.93841 30.1083 4.8546 28.4485 2.96762C26.6222 0.890158 23.3231 0 19.1019 0H6.84782C5.98553 0 5.25041 0.627302 5.1156 1.4781L0.013028 33.7829C-0.0874463 34.4216 0.406022 34.9968 1.05211 34.9968H8.61693L8.09421 38.3035C8.00646 38.861 8.43888 39.3651 9.00484 39.3651H15.3818C16.136 39.3651 16.7782 38.8165 16.8965 38.0724L16.9588 37.7486L18.1594 30.1435L18.237 29.7232C18.3553 28.979 18.9976 28.4292 19.7518 28.4292H20.7056C26.8829 28.4292 31.7197 25.9251 33.1327 18.6768C33.7241 15.6495 33.4188 13.1213 31.857 11.3448C31.3839 10.8089 30.7963 10.3644 30.1108 10.0013Z" fill="#009CDE"/>
<path d="M30.1108 10.0013C30.5916 6.93841 30.1083 4.8546 28.4485 2.96762C26.6222 0.890159 23.3231 0 19.1019 0H6.84782C5.98553 0 5.25041 0.627302 5.1156 1.4781L0.013028 33.7829C-0.0874463 34.4216 0.406022 34.9968 1.05211 34.9968H8.61693L10.517 22.9651L10.4585 23.3435C10.5934 22.4914 11.3208 21.8654 12.1844 21.8654H15.7799C22.841 21.8654 28.3697 19.0006 29.9862 10.7175C30.0332 10.4724 30.0739 10.2362 30.1108 10.0013Z" fill="#012169"/>
<path d="M12.5596 10.0419C12.6397 9.53016 12.9691 9.11111 13.4117 8.89905C13.6127 8.80254 13.8378 8.74921 14.0743 8.74921H23.6804C24.8187 8.74921 25.8794 8.82413 26.8498 8.98032C27.1271 9.02476 27.3967 9.07556 27.6587 9.13397C27.9207 9.19111 28.1751 9.25587 28.4218 9.32825C28.5452 9.36381 28.666 9.40191 28.7856 9.44127C29.2625 9.6 29.7064 9.7854 30.1133 10.0013C30.5941 6.93841 30.1108 4.8546 28.4511 2.96762C26.6222 0.890159 23.3231 0 19.1019 0H6.84782C5.98553 0 5.25041 0.627302 5.1156 1.4781L0.013028 33.7829C-0.0874463 34.4216 0.406022 34.9968 1.05211 34.9968H8.61693L10.517 22.9651L12.5596 10.0419Z" fill="#003087"/>
</svg>
