<svg width="200" height="65" viewBox="0 0 200 65" fill="none" xmlns="http://www.w3.org/2000/svg">
<path d="M86.7019 63.8028H70.3823L80.5818 1.12005H96.9031L86.7019 63.8028ZM56.6533 1.12005L41.0949 44.2337L39.2539 34.9497L39.2555 34.953L33.7643 6.76392C33.7643 6.76392 33.1003 1.12005 26.0228 1.12005H0.301811L0 2.18142C0 2.18142 7.86553 3.8179 17.0708 9.34607L31.2492 63.8045H48.2529L74.217 1.12005H56.6533V1.12005ZM185.015 63.8028H200L186.935 1.11838H173.816C167.758 1.11838 166.283 5.78974 166.283 5.78974L141.943 63.8028H158.955L162.357 54.492H183.104L185.015 63.8028ZM167.057 41.6298L175.632 18.1724L180.456 41.6298H167.057ZM143.219 16.1938L145.548 2.73306C145.548 2.73306 138.362 0 130.87 0C122.772 0 103.54 3.53957 103.54 20.7512C103.54 36.945 126.112 37.1462 126.112 45.6523C126.112 54.1583 105.865 52.6341 99.1834 47.2703L96.7572 61.3447C96.7572 61.3447 104.044 64.8843 115.178 64.8843C126.315 64.8843 143.115 59.118 143.115 43.4239C143.115 27.1261 120.34 25.6087 120.34 18.5228C120.342 11.4353 136.236 12.3457 143.219 16.1938V16.1938Z" fill="#2566AF"/>
<path d="M39.2555 34.9514L33.7643 6.76227C33.7643 6.76227 33.1003 1.11841 26.0228 1.11841H0.301811L0 2.17978C0 2.17978 12.3625 4.74181 24.2203 14.3411C35.5584 23.5161 39.2555 34.9514 39.2555 34.9514Z" fill="#E6A540"/>
</svg>
