<svg width="200" height="86" viewBox="0 0 200 86" fill="none" xmlns="http://www.w3.org/2000/svg">
<path d="M80.8741 82.7545C80.4935 81.7079 79.8037 80.9943 79.3041 80.0666C78.091 78.4729 76.6638 77.0932 75.2366 75.7136C74.7371 75.5471 74.523 75.0714 74.0473 74.8811C73.738 74.4767 73.2385 74.2626 72.8341 73.9534C72.0254 73.3349 71.1453 72.8116 70.2414 72.2883C68.5287 71.1941 66.4117 70.5043 64.3184 69.7907C62.0587 69.2436 59.68 68.8392 57.2061 68.5062C54.7561 68.1494 52.3061 67.8164 50.4507 66.8411C49.3803 66.5319 48.5953 65.9372 47.6676 65.4615C46.8113 64.8906 45.8836 64.4148 45.17 63.7012C44.2899 63.1779 43.7428 62.2978 43.053 61.5842C42.8151 61.1085 42.4107 60.823 42.2204 60.2997C41.9826 60.2046 41.9112 59.9191 41.7685 59.7526C41.602 59.5623 41.602 59.1817 41.3165 59.1104C41.1738 60.0856 41.2214 61.2512 41.3165 62.2502C41.4355 62.6784 41.483 63.2017 41.602 63.6299C41.6733 64.0105 42.0301 64.6289 41.8874 64.9144C34.4659 64.5338 29.0425 62.1789 24.3327 59.0866C22.0016 57.5404 20.0035 55.6613 18.1481 53.6394C17.3394 52.5214 16.4592 51.451 15.7456 50.2141C15.0082 49.0009 14.3898 47.6213 13.7238 46.3368C12.6296 43.5538 11.6067 40.6993 11.2261 37.2027C10.7266 33.9439 10.8455 29.7812 11.5829 26.7602C11.8446 25.0951 12.3917 23.6917 12.8674 22.2407C13.1767 21.5747 13.5097 20.9087 13.7951 20.2188C14.1995 19.648 14.4136 18.863 14.9131 18.3635C16.2689 15.8183 18.2908 13.9153 20.3603 12.0837C22.5963 10.4424 25.1414 9.11037 28.21 8.30161C31.1595 7.63558 35.1795 7.51665 38.3669 8.20647C44.837 9.53853 49.7133 12.4405 53.8046 16.1513C57.9435 19.7907 61.131 24.4053 63.3194 30.019C65.5791 35.3473 66.3641 43.6489 64.3422 49.6908C63.5097 49.215 62.6771 48.7631 61.8446 48.3111C60.8455 48.0257 59.8703 47.6927 58.7047 47.5737C57.3013 47.5499 55.9217 47.5737 55.0178 48.0257C56.8493 47.8354 58.3241 48.3349 59.4659 48.7631C60.1319 49.0247 60.5125 49.1912 61.0358 49.5005C62.0587 50.0951 62.9626 50.6422 63.7238 51.451C65.8884 53.3539 67.4345 55.8754 68.1719 59.2055C68.1719 59.3007 68.2908 59.2769 68.267 59.1104C68.3622 59.0866 68.4098 59.0152 68.4573 58.9201C68.5763 58.7773 68.719 58.6346 68.8379 58.4681C69.0758 58.1827 69.3137 57.8972 69.4802 57.5404C69.9797 56.9458 70.3841 56.2797 70.7647 55.5899C71.6448 54.3054 72.3108 52.8306 73.072 51.4272C74.3803 48.4301 75.4507 45.195 76.1167 41.5319C77.4488 33.3968 75.8551 25.6898 73.072 20.0048C70.2176 14.2721 66.2214 9.68125 61.0596 6.23216C55.8503 2.80685 49.7609 0.285439 41.3879 0.0475702C41.3403 -0.118938 41.2689 0.0713571 41.1024 0.0475702C36.6781 -0.095151 33.1101 0.523308 29.5658 1.42721C27.9245 1.97431 26.2119 2.45004 24.7609 3.18744C23.0958 3.73453 21.7637 4.63844 20.2414 5.30447C19.6943 5.82778 18.8617 6.08944 18.2908 6.58896C17.5534 6.94576 17.0063 7.51665 16.2689 7.87345C15.0796 8.92007 13.8189 9.84776 12.6533 10.9182C11.5116 11.9648 10.5125 13.1541 9.41833 14.2483C9.25182 14.6289 8.96638 14.8906 8.68094 15.176C8.49064 15.5328 8.25277 15.8421 7.94354 16.1037C7.82461 16.5319 7.44402 16.6984 7.3013 17.1265C6.99207 17.3644 6.92071 17.8401 6.5639 18.0542C6.25468 18.8154 5.70758 19.3625 5.35077 20.0761C4.92261 20.7659 4.58959 21.5271 4.16143 22.1931C3.4954 23.7393 2.78179 25.2379 2.23469 26.9029C1.66381 28.5205 1.18807 30.2331 0.855055 32.0885C0.498252 33.8249 0.165236 36.0847 0.21281 37.9163C-0.0250588 38.5823 0.165236 39.8192 0.21281 40.6042C0.21281 40.7469 0.117662 40.7945 0.117662 40.8896C0.117662 41.7697 0.355531 42.8401 0.403105 43.3872C0.5934 45.4091 0.950203 47.2883 1.52109 48.9296C1.87789 50.7612 2.63907 52.1884 3.18617 53.8297C4.01871 55.2093 4.58959 56.8506 5.58864 58.0875C6.32604 59.5385 7.37266 60.6803 8.37171 61.8696C9.44212 63.0114 10.5125 64.177 11.797 65.1047C14.1519 67.1503 16.9112 68.7916 19.9321 70.1951C25.5696 72.9305 33.9902 74.7146 41.5544 74.2626C43.4811 74.001 45.4316 73.7631 47.1919 73.3349C48.8094 72.7402 50.6885 72.3834 52.6391 72.1456C57.0872 71.8601 60.9407 72.2645 64.366 73.2636C67.8389 74.1912 70.836 75.5947 73.4288 77.4263C74.8084 78.235 75.9502 79.2816 77.1158 80.2807C78.3051 81.3035 79.2566 82.5642 80.3508 83.706C80.4935 84.1342 80.7789 84.4434 80.993 84.824C81.2785 85.1332 81.1357 85.8468 81.8256 85.7517C82.2537 85.3235 81.7542 84.705 81.7304 84.1817C81.3022 83.7298 81.2071 83.1351 80.8741 82.7545V82.7545Z" fill="#FCB316"/>
<path d="M63.6071 57.4453C63.512 57.4453 63.4882 57.5166 63.4169 57.5404C63.2503 57.8972 63.3217 58.4681 63.4169 58.8249C63.9164 59.8477 64.0829 61.1798 65.1771 61.608C65.7004 61.4415 65.6528 60.6803 65.629 59.9429C65.3912 59.039 65.0581 58.2302 64.511 57.6356C64.1305 57.4928 63.8688 57.255 63.6071 57.4453V57.4453ZM57.1371 60.038C57.1371 59.9905 57.0657 59.9429 57.042 60.038C56.1381 59.9191 55.8288 60.4186 55.3769 60.7754C54.5919 62.8449 55.8526 64.8668 58.0648 64.843C58.9449 64.6289 59.492 64.058 59.6347 63.0828C59.5158 61.3463 58.7784 60.2283 57.1371 60.038V60.038Z" fill="#FCB316"/>
<path d="M110.466 53.4491C110.823 54.9477 111.584 56.0181 112.441 57.0171C113.297 58.0162 114.296 58.8487 115.509 59.4672C116.651 60.1808 117.888 60.7755 119.315 61.1798C120.005 61.4177 120.671 61.7031 121.527 61.7983C122.122 62.1313 122.836 62.2978 122.883 63.1541C122.859 64.177 122.17 64.5576 121.289 64.7479C120.409 64.5576 119.315 64.5814 118.578 64.2483C116.722 64.0343 115.224 63.4396 113.654 62.8925C110.657 61.7269 108.135 60.0381 106.042 57.9686C105.614 57.255 105.019 56.6841 104.567 55.9943C104.115 55.3045 103.806 54.4719 103.33 53.7821C99.6672 53.3064 97.1696 51.6413 94.9812 49.7146C92.9593 47.4072 91.3418 44.648 90.6758 40.9848C89.8908 37.4643 90.1287 33.0637 91.0564 29.6622C93.0782 23.0733 97.3123 18.6965 105.305 18.1018C107.517 18.1732 109.444 18.4348 111.204 19.1009C112.988 19.7431 114.677 20.9324 116.009 22.1694C116.128 22.2645 116.175 22.2883 116.247 22.4072C116.532 22.8116 117.222 23.3825 117.603 23.882C117.674 23.9772 117.65 24.1437 117.721 24.2626C117.864 24.4767 118.078 24.5718 118.221 24.7621C118.292 24.8811 118.269 25.0238 118.34 25.1189C118.435 25.2617 118.554 25.4757 118.697 25.7374C118.744 25.8325 118.911 25.9039 118.935 25.9753C119.149 26.3796 119.244 26.8792 119.434 27.3311C119.624 27.8069 119.886 28.2112 120.053 28.687C120.528 30.0904 120.838 31.7555 121.028 33.4681C121.504 38.4158 120.528 42.8402 118.697 46.1227C117.84 47.8354 116.651 49.2388 115.248 50.4282C113.963 51.784 112.203 52.5928 110.466 53.4491V53.4491ZM104.567 22.4786C103.497 22.55 102.855 23.0495 101.975 23.3349C101.404 23.8582 100.69 24.2626 100.262 24.9286C99.5483 25.333 99.358 26.2369 98.7871 26.7602C98.3114 27.9496 97.8594 29.2816 97.5502 30.8278C97.2647 32.3501 97.0744 34.0628 97.0507 35.7517C97.0269 39.9857 97.9308 44.196 99.6196 46.6936C100.619 47.9068 101.832 48.9058 103.307 49.6432C104.163 49.7146 104.829 50 105.757 50.0238C106.28 49.8335 107.136 50.0238 107.469 49.6432C108.23 49.6908 108.397 49.1912 109.063 49.1437C109.42 48.7869 109.8 48.5014 110.3 48.2873C110.752 47.7878 111.18 47.2883 111.656 46.8126C111.894 46.4558 112.036 45.9562 112.393 45.6946C114.534 41.6032 114.772 34.1104 113.368 29.353C112.845 27.6166 112.108 26.2131 111.275 25.0476C110.371 24.1199 109.301 23.3349 108.088 22.7165C107.112 22.5024 106.185 22.2407 104.9 22.3597C104.829 22.3597 104.758 22.3834 104.781 22.4786C104.734 22.4786 104.662 22.4786 104.567 22.4786V22.4786ZM130.519 19.0295C132.446 19.1009 134.705 18.863 136.418 19.1484C136.799 19.7431 136.656 20.4567 136.656 21.1227C136.799 30.138 136.656 39.8192 136.656 49.0247C136.656 49.7621 136.68 50.5233 136.656 51.2369C136.632 51.8554 136.799 52.5214 136.418 53.0923C135.562 53.3064 134.325 53.2112 133.23 53.2112C132.065 53.2112 130.923 53.3777 130.162 52.9734C129.948 42.079 129.948 30.3283 130.162 19.4101C130.21 19.2198 130.328 19.1009 130.519 19.0295V19.0295ZM145.267 19.0295H151.047C151.57 19.7431 151.737 20.8135 151.903 21.8601C153.64 28.4729 155.352 35.1094 156.946 41.8887C157.327 41.9363 157.208 41.4843 157.327 41.2702C157.493 41.1037 157.398 40.6993 157.564 40.5328C157.636 39.9857 157.969 39.7003 157.945 39.058C158.373 38.2255 158.516 37.0837 158.92 36.2274C159.42 34.2293 160.086 32.3739 160.657 30.4472C161.204 28.4491 161.941 26.6413 162.369 24.548C163.178 22.8592 163.368 20.5519 164.344 19.0295H166.794C167.674 20.6946 168.007 22.9068 168.768 24.6908C169.268 26.6889 169.957 28.4967 170.481 30.471C171.694 34.3007 172.955 38.0828 174.049 42.0314C174.548 41.294 174.548 40.0571 174.905 39.2008C175.119 38.2255 175.309 37.2264 175.642 36.3701C176.594 32.4691 177.498 28.5442 178.592 24.8097C178.996 22.8592 179.401 20.8611 180.067 19.1484C181.494 18.9343 183.682 18.9343 185.11 19.1484C185.229 20.5994 184.563 22.1694 184.134 23.4539C183.897 25.0238 183.326 26.2369 183.016 27.7593C182.136 30.5423 181.47 33.4919 180.566 36.2512C179.877 39.2008 178.949 41.9125 178.235 44.862C177.759 46.2179 177.426 47.7165 176.998 49.1675C176.523 50.4995 176.356 52.1408 175.642 53.235H172.193C171.313 51.6889 171.004 49.5956 170.219 47.9543C168.506 42.5309 166.603 37.3216 164.938 31.8506C164.367 32.4453 164.367 33.6584 163.963 34.4196C163.701 35.3473 163.44 36.275 163.107 37.1313C162.631 39.0105 161.917 40.6042 161.513 42.5309C160.823 44.2198 160.324 46.099 159.8 47.9543C159.087 49.5718 158.825 51.6413 157.945 53.1161C157.041 53.4015 155.614 53.1637 154.496 53.235C153.64 52.2598 153.544 50.4995 153.021 49.1675C152.617 47.7878 152.331 46.2655 151.808 44.981C151.142 41.9838 150.143 39.3435 149.477 36.3701C148.597 33.6108 147.836 30.7326 147.027 27.8782C146.575 26.5224 146.242 25.0714 145.79 23.6917C145.576 22.2169 144.577 20.8849 144.934 19.2674C144.981 19.1484 145.124 19.0771 145.267 19.0295V19.0295ZM193.816 19.0295C195.742 19.1009 197.978 18.863 199.715 19.1484C200.143 20.4329 199.953 21.8126 199.953 23.1922V49.001C199.953 50.4044 200.119 51.7602 199.715 53.0685C198.383 53.2112 196.432 53.2826 194.791 53.1874C194.315 53.1637 193.744 53.3064 193.435 52.9496C193.007 51.6651 193.197 50.3092 193.197 48.882V23.3349C193.197 21.7888 193.054 20.2902 193.435 19.2674C193.53 19.1484 193.673 19.0771 193.816 19.0295V19.0295Z" fill="#0269B3"/>
</svg>
