<svg width="239" height="50" viewBox="0 0 239 50" fill="none" xmlns="http://www.w3.org/2000/svg">
<path d="M45.4121 0C31.488 0 20.4121 11.2342 20.4121 25C20.4121 38.924 31.6463 50 45.4121 50C59.1779 50 70.4121 38.7658 70.4121 25C70.5703 11.2342 59.1779 0 45.4121 0ZM45.4121 34.3354C40.3488 34.3354 36.0766 30.0633 36.0766 25C36.0766 19.9367 40.3488 15.6646 45.4121 15.6646C50.4754 15.6646 54.7475 19.9367 54.7475 25C54.7475 30.0633 50.6336 34.3354 45.4121 34.3354Z" fill="#8B3FFD"/>
<path d="M20.4114 7.27869V43.6711H11.3924L0 7.27869H20.4114Z" fill="#8B3FFD"/>
<path d="M231.329 13.7659L225.791 27.3735C225.633 27.5317 225.633 27.8481 225.633 28.0064L225.474 28.3228L225.316 28.0064C225.316 27.8481 225.158 27.5317 225.158 27.3735L219.62 13.7659H212.5L221.835 37.0254L217.88 45.8861H225L238.133 13.7659H231.329Z" fill="black"/>
<path d="M178.798 15.0317C177.532 14.0823 175.95 13.4494 174.051 13.2912C170.887 12.9747 167.881 14.0823 165.824 16.1393V13.6077H159.336V36.8672H165.824V24.6836C165.824 21.9937 166.298 21.2026 166.773 20.5697C167.564 19.3039 168.988 18.671 170.729 18.671C172.469 18.671 174.051 19.4621 174.843 20.7279C175.317 21.6773 175.475 22.9431 175.475 23.576C175.475 25.633 175.475 36.8672 175.475 36.8672H181.963V22.7849C181.963 19.1456 180.855 16.614 178.798 15.0317Z" fill="black"/>
<path d="M146.992 13.9241C143.828 12.8165 140.347 12.9748 137.182 14.3988C135.125 15.3482 133.227 16.9304 132.119 18.9874C131.011 20.7279 130.537 22.9431 130.537 25.3165C130.537 27.6899 131.011 29.9051 132.119 31.6456C133.227 33.3861 134.651 34.9684 136.549 35.9178C138.448 36.8672 140.663 37.5001 142.72 37.5001C143.828 37.5001 144.935 37.3418 146.043 37.0254C146.992 36.7089 147.942 36.3925 148.891 35.9178C150.79 34.8102 152.372 33.3861 153.322 31.6456C154.429 29.9051 154.904 27.6899 154.904 25.3165C155.062 20.095 152.056 15.6646 146.992 13.9241ZM148.891 25.633C148.733 27.6899 148.1 29.4304 146.834 30.538C145.885 31.3292 144.461 31.8039 142.72 31.9621C140.98 31.9621 139.714 31.4874 138.606 30.538C137.341 29.4304 136.708 27.6899 136.549 25.633C136.391 23.2596 137.341 21.3608 139.081 20.095C140.03 19.4621 141.296 18.9874 142.562 18.9874C143.986 18.9874 145.094 19.4621 146.201 20.095C148.1 21.2026 149.049 23.2596 148.891 25.633Z" fill="black"/>
<path d="M123.101 15.0316C121.835 14.0823 120.253 13.4494 118.354 13.2911C118.038 13.2911 117.563 13.2911 117.247 13.2911C114.715 13.2911 112.5 14.3987 110.601 16.6139L110.285 17.0886H109.652C109.177 16.2975 108.544 15.6646 107.911 15.1899C106.645 14.2405 105.063 13.6076 103.164 13.4494C100.158 13.1329 97.7845 14.0823 95.7275 16.2975V13.9241H89.2402V37.1835H95.7275V25V24.6835C95.7275 22.1519 96.044 21.519 96.5186 20.7279C97.3098 19.462 98.7338 18.6709 100.316 18.8291C101.899 18.8291 103.323 19.6203 104.114 20.8861C104.747 21.8354 104.747 22.943 104.747 24.0506V37.0253H111.234V24.5253C111.234 22.1519 111.55 21.3608 112.025 20.5696C112.816 19.3038 114.24 18.6709 115.823 18.6709C117.405 18.6709 118.671 19.462 119.462 20.7279C119.937 21.519 120.095 22.4684 120.095 23.1013C120.095 23.4177 120.095 23.7342 120.095 23.8924V36.8671H126.582V22.6266C126.582 21.3608 126.424 20.0949 126.107 18.9873C125.475 17.4051 124.525 15.981 123.101 15.0316Z" fill="black"/>
<path d="M206.328 29.9052C205.379 30.8546 203.163 32.5951 200.157 32.7533C197.625 32.9115 195.727 32.1204 194.303 30.6964C193.67 30.0634 193.195 29.1141 192.879 28.1647H210.758V28.0065C210.917 27.0571 211.075 26.266 211.075 25.3166C211.075 24.5255 210.917 23.4179 210.6 21.9938C209.809 19.3039 208.227 17.247 206.17 15.6647C203.796 13.9242 201.581 13.4495 200.948 13.4495C196.36 12.6584 191.138 14.7153 188.448 18.9875C186.549 21.9938 186.708 25.0001 186.708 25.9495C186.708 27.0571 186.866 30.5381 189.714 33.7027C193.037 37.3419 197.625 37.5001 199.049 37.6584C205.379 37.8166 209.651 33.8609 210.6 33.0698L206.328 29.9052ZM195.252 20.0951C196.201 19.4622 197.309 18.9875 198.733 18.9875C200.157 18.9875 201.265 19.4622 202.372 20.0951C203.322 20.8862 204.113 21.8356 204.587 22.9432H193.195C193.353 21.8356 194.144 20.728 195.252 20.0951Z" fill="black"/>
</svg>
