<svg width="122" height="72" viewBox="0 0 122 72" fill="none" xmlns="http://www.w3.org/2000/svg">
<path d="M19 71.9679H20.872V69.9999H28.856V71.9679H30.728V68.1919H29.368V58.7999H21.448V60.4319C21.448 65.4079 20.936 67.0879 20.2 68.1919H19V71.9679ZM23.288 60.6079H27.432V68.1919H22.216C22.92 66.8799 23.288 64.7839 23.288 61.3119V60.6079Z" fill="#323232"/>
<path d="M31.3405 64.3999C31.3405 67.7279 33.9005 70.1279 37.0685 70.1279C40.2525 70.1279 42.7965 67.6959 42.7965 64.3999C42.7965 61.0719 40.2525 58.6719 37.0685 58.6719C33.8525 58.6719 31.3405 61.1679 31.3405 64.3999ZM33.3565 64.3999C33.3565 62.0639 35.0685 60.5279 37.0685 60.5279C39.0205 60.5279 40.7805 62.0639 40.7805 64.3999C40.7805 66.7199 39.1485 68.2719 37.0685 68.2719C35.0845 68.2719 33.3565 66.7199 33.3565 64.3999Z" fill="#323232"/>
<path d="M47.1094 71.9679H48.9814V69.9999H56.9654V71.9679H58.8374V68.1919H57.4774V58.7999H49.5574V60.4319C49.5574 65.4079 49.0454 67.0879 48.3094 68.1919H47.1094V71.9679ZM51.3974 60.6079H55.5414V68.1919H50.3254C51.0294 66.8799 51.3974 64.7839 51.3974 61.3119V60.6079Z" fill="#323232"/>
<path d="M60.12 69.9999H64.776C67.368 69.9999 69.16 69.0559 69.16 66.7359C69.16 65.2959 68.504 64.4479 67.432 64.1119C68.248 63.6159 68.776 62.7839 68.776 61.6159C68.776 59.9839 67.864 58.7999 64.872 58.7999H60.12V69.9999ZM64.776 65.1679C66.472 65.1679 67.144 65.6319 67.144 66.6239C67.144 67.7119 66.408 68.1759 64.648 68.1759H62.056V65.1679H64.776ZM64.616 60.6239C66.28 60.6239 66.776 61.1039 66.776 62.0479C66.776 62.8959 66.056 63.4079 64.824 63.4079H62.056V60.6239H64.616Z" fill="#323232"/>
<path d="M70.9169 69.9999H79.3969V68.1759H72.8529V65.1999H78.8209V63.4399H72.8529V60.6239H79.2369V58.7999H70.9169V69.9999Z" fill="#323232"/>
<path d="M83.1654 69.9999V66.1599H85.7414C89.2294 66.1599 90.4134 64.3199 90.4134 62.4799C90.4134 60.7039 89.5334 58.7999 85.7574 58.7999H81.2294V69.9999H83.1654ZM85.8214 60.6079C87.7254 60.6079 88.3974 61.3919 88.3974 62.4639C88.3974 63.6159 87.5974 64.3519 85.7094 64.3519H83.1654V60.6079H85.8214Z" fill="#323232"/>
<path d="M93.6891 69.9999L99.8491 62.2399V69.9999H101.785V58.7999H100.153L94.0091 66.5599V58.7999H92.0731V69.9999H93.6891Z" fill="#323232"/>
<path fill-rule="evenodd" clip-rule="evenodd" d="M11.5774 37.9251C6.32717 37.9251 3.93766 39.3695 2.99531 42.3928L0 52H102.042C107.293 52 109.682 50.5556 110.625 47.5323L113.62 37.9251H11.5774ZM23.8615 24.522H18.8132C10.9379 24.522 16.6593 7.82687 23.2894 7.82687H31.2657C32.5446 7.82687 34.7995 8.06202 35.9101 4.90439L37.6265 0H26.6886C20.7652 0 16.1545 2.08269 12.8226 5.57623C7.06759 11.5556 5.11559 20.8941 6.49545 25.3618C7.808 29.4935 11.3754 32.2145 16.9622 32.2817L21.3037 32.3153H26.6549L27.9674 28.385C28.9434 25.5969 26.7559 24.522 23.8615 24.522ZM85.3159 17.6021L86.965 12.261H69.3633C66.4353 12.261 65.1228 13.0672 64.6179 14.7468L62.9688 20.0879H80.5705C83.4985 20.0879 84.811 19.2817 85.3159 17.6021ZM60.3437 27.0078L58.6946 32.3488H76.2963C79.1906 32.3488 80.5368 31.5426 81.0417 29.8631L82.6908 24.522H65.0891C62.1948 24.522 60.8822 25.3282 60.3437 27.0078V27.0078ZM89.4218 5.37468L91.0709 0.0335912H73.4692C70.5412 0.0335912 69.2287 0.839793 68.7239 2.51938L67.0748 7.86047H84.6764C87.5708 7.86047 88.8833 7.05427 89.4218 5.37468ZM62.8342 6.44961C62.0938 1.47804 59.435 0.0335912 52.9732 0.0335912H41.1939L34.3283 20.0879H38.6698C41.2612 20.0879 42.5738 20.1214 43.9537 16.4264L46.8143 7.82687H51.1895C54.9252 7.82687 54.0839 12.4961 52.1992 17.031C50.5164 21.0284 47.5884 24.5556 44.0546 24.5556H36.7515C33.8235 24.5556 32.4772 25.3618 31.9388 27.0413L30.1214 32.3824H35.4726L40.7228 32.3488C45.3672 32.3152 49.1702 31.9793 53.6127 27.9819C58.3244 23.7158 63.7766 12.7649 62.8342 6.44961V6.44961ZM122 0H111.802L102.211 10.1783C101.1 11.354 99.9559 12.5297 98.8452 13.907H98.7443L103.523 0H95.2105L84.0033 32.3488H92.3161L95.8836 22.1705L99.5857 19.0465L102.514 28.2506C103.422 31.1059 104.365 32.3488 106.384 32.3488H112.745L106.216 14.2765L122 0V0Z" fill="#00B33C"/>
</svg>
