<svg width="142" height="72" viewBox="0 0 142 72" fill="none" xmlns="http://www.w3.org/2000/svg">
<path d="M0.119141 69.9998H4.77514C7.36714 69.9998 9.15914 69.0558 9.15914 66.7358C9.15914 65.2958 8.50314 64.4478 7.43114 64.1118C8.24714 63.6158 8.77514 62.7838 8.77514 61.6158C8.77514 59.9838 7.86314 58.7998 4.87114 58.7998H0.119141V69.9998ZM4.77514 65.1678C6.47114 65.1678 7.14314 65.6318 7.14314 66.6238C7.14314 67.7118 6.40714 68.1758 4.64714 68.1758H2.05514V65.1678H4.77514ZM4.61514 60.6238C6.27914 60.6238 6.77514 61.1038 6.77514 62.0478C6.77514 62.8958 6.05514 63.4078 4.82314 63.4078H2.05514V60.6238H4.61514Z" fill="#323232"/>
<path d="M22.4573 69.9998H24.3933V58.7998H14.6973V69.9998H16.6333V60.6238H22.4573V69.9998Z" fill="#323232"/>
<path d="M28.6508 69.7758C29.0028 69.9678 29.3708 70.0478 29.7228 70.0478C31.1148 70.0478 31.8988 69.0718 32.6828 67.4078L36.8268 58.7998H34.7948L31.8348 65.0878L27.8988 58.7998H25.5148L30.8428 67.1198C30.4908 67.8398 30.1388 68.2398 29.7708 68.2398C29.6268 68.2398 29.5148 68.2078 29.4028 68.1598L28.6508 69.7758Z" fill="#323232"/>
<path d="M45.7553 69.9998H47.6913V58.7998H45.7553V63.4238H39.8833V58.7998H37.9473V69.9998H39.8833V65.2478H45.7553V69.9998Z" fill="#323232"/>
<path d="M49.9316 69.9998H51.8676V66.0958L52.8756 65.1198L57.2116 69.9998H59.7876L54.3316 63.8238L59.4196 58.7998H56.8916L51.8676 63.7118V58.7998H49.9316V69.9998Z" fill="#323232"/>
<path d="M59.437 60.6238H63.197V69.9998H65.133V60.6238H68.893V58.7998H59.437V60.6238Z" fill="#323232"/>
<path d="M73.8066 69.9998H78.4626C81.0546 69.9998 82.8466 69.0558 82.8466 66.7358C82.8466 65.2958 82.1906 64.4478 81.1186 64.1118C81.9346 63.6158 82.4626 62.7838 82.4626 61.6158C82.4626 59.9838 81.5506 58.7998 78.5586 58.7998H73.8066V69.9998ZM78.4626 65.1678C80.1586 65.1678 80.8306 65.6318 80.8306 66.6238C80.8306 67.7118 80.0946 68.1758 78.3346 68.1758H75.7426V65.1678H78.4626ZM78.3026 60.6238C79.9666 60.6238 80.4626 61.1038 80.4626 62.0478C80.4626 62.8958 79.7426 63.4078 78.5106 63.4078H75.7426V60.6238H78.3026Z" fill="#323232"/>
<path d="M94.2835 69.9998H96.2195V58.7998H94.2835V69.9998ZM88.5715 64.5598C90.2995 64.5598 91.2115 65.1358 91.2115 66.3038C91.2115 67.6798 90.2835 68.1758 88.5395 68.1758H86.5395V64.5598H88.5715ZM86.5395 58.7998H84.6035V69.9998H88.4755C91.4515 69.9998 93.2275 68.7518 93.2275 66.3038C93.2275 64.1438 91.7075 62.7518 88.6195 62.7518H86.5395V58.7998Z" fill="#323232"/>
<path d="M97.3273 71.9678H99.1993V69.9998H107.183V71.9678H109.055V68.1918H107.695V58.7998H99.7753V60.4318C99.7753 65.4078 99.2633 67.0878 98.5273 68.1918H97.3273V71.9678ZM101.615 60.6078H105.759V68.1918H100.543C101.247 66.8798 101.615 64.7838 101.615 61.3118V60.6078Z" fill="#323232"/>
<path d="M109.202 69.9998H111.202L112.274 67.5198H117.378L118.466 69.9998H120.498L115.586 58.7998H114.114L109.202 69.9998ZM114.818 61.5998L116.658 65.8558H112.978L114.818 61.5998Z" fill="#323232"/>
<path d="M129.172 58.7998H127.236V63.6158C126.452 64.1278 125.348 64.3998 124.452 64.3998C122.612 64.3998 121.764 63.5678 121.764 61.3438V58.7998H119.828V62.4478C119.828 65.1358 121.716 66.2078 124.148 66.2078C125.3 66.2078 126.612 65.8558 127.236 65.5038V69.9998H129.172V58.7998Z" fill="#323232"/>
<path d="M133.016 69.9998L139.176 62.2398V69.9998H141.112V58.7998H139.48L133.336 66.5598V58.7998H131.4V69.9998H133.016Z" fill="#323232"/>
<path fill-rule="evenodd" clip-rule="evenodd" d="M21.5774 37.9251C16.3272 37.9251 13.9377 39.3695 12.9953 42.3928L10 52H112.042C117.293 52 119.682 50.5556 120.625 47.5323L123.62 37.9251H21.5774ZM33.8615 24.522H28.8132C20.9379 24.522 26.6593 7.82687 33.2894 7.82687H41.2657C42.5446 7.82687 44.7994 8.06202 45.9101 4.90439L47.6265 0H36.6886C30.7652 0 26.1545 2.08269 22.8226 5.57623C17.0676 11.5556 15.1156 20.8941 16.4954 25.3618C17.808 29.4935 21.3754 32.2145 26.9622 32.2817L31.3037 32.3153H36.6549L37.9674 28.385C38.9434 25.5969 36.7559 24.522 33.8615 24.522ZM95.3159 17.6021L96.965 12.261H79.3633C76.4353 12.261 75.1228 13.0672 74.6179 14.7468L72.9688 20.0879H90.5705C93.4985 20.0879 94.811 19.2817 95.3159 17.6021ZM70.3437 27.0078L68.6946 32.3488H86.2963C89.1906 32.3488 90.5368 31.5426 91.0417 29.8631L92.6908 24.522H75.0891C72.1948 24.522 70.8822 25.3282 70.3437 27.0078ZM99.4218 5.37468L101.071 0.0335912H83.4692C80.5412 0.0335912 79.2287 0.839793 78.7239 2.51938L77.0748 7.86047H94.6764C97.5708 7.86047 98.8833 7.05427 99.4218 5.37468ZM72.8342 6.44961C72.0938 1.47804 69.435 0.0335912 62.9732 0.0335912H51.1939L44.3283 20.0879H48.6698C51.2612 20.0879 52.5738 20.1215 53.9537 16.4264L56.8143 7.82687H61.1895C64.9252 7.82687 64.0839 12.4961 62.1992 17.031C60.5164 21.0284 57.5884 24.5556 54.0546 24.5556H46.7514C43.8234 24.5556 42.4772 25.3618 41.9388 27.0413L40.1214 32.3824H45.4726L50.7228 32.3488C55.3672 32.3152 59.1702 31.9793 63.6127 27.9819C68.3244 23.7158 73.7766 12.7649 72.8342 6.44961ZM132 0H121.802L112.211 10.1783C111.1 11.354 109.956 12.5297 108.845 13.907H108.744L113.523 0H105.21L94.0033 32.3488H102.316L105.884 22.1705L109.586 19.0465L112.514 28.2506C113.422 31.1059 114.365 32.3488 116.384 32.3488H122.745L116.216 14.2765L132 0Z" fill="#00B33C"/>
</svg>
