<svg width="24" height="15" viewBox="0 0 24 15" fill="none" xmlns="http://www.w3.org/2000/svg">
<path d="M7.44614 12.0784H3.36774V8.15299H7.64319C7.64319 8.15299 9.19165 8.13266 9.19165 10.1701C9.19165 11.8689 8.05902 12.0613 7.44614 12.0784ZM3.36774 2.61097H7.09297H7.64319C7.64319 2.61097 8.68228 2.61097 8.68228 4.13909C8.68228 5.66722 8.07096 5.8888 7.37829 5.8888H3.36774V2.61097ZM9.55841 6.70631C9.55841 6.70631 11.7996 6.53981 11.7996 3.9115C11.7996 1.2831 9.96592 0.000441551 7.64319 0.000441551H3.36774H3.24213H0V14.6889H3.24213H3.36774H7.64319C7.64319 14.6889 12.309 14.836 12.309 10.3535C12.309 10.3535 12.5127 6.70631 9.55841 6.70631Z" fill="#C8C8C8"/>
<path d="M20.8288 8.15305H16.0038C16.0038 8.15305 16.3197 5.88886 18.5886 5.88886C20.8576 5.88886 20.8288 8.15305 20.8288 8.15305ZM18.5312 3.73756C12.8827 3.73756 12.8878 9.38095 12.8878 9.38095C12.8878 9.38095 12.5002 14.9958 18.5313 14.9958C18.5313 14.9958 23.5574 15.283 23.5574 11.0899H20.9725C20.9725 11.0899 21.0587 12.6692 18.6174 12.6692C18.6174 12.6692 16.0325 12.8422 16.0325 10.1135H23.6435C23.6435 10.1135 24.4762 3.73756 18.5312 3.73756Z" fill="#C8C8C8"/>
<path d="M15.3711 2.67383H21.4311V0.864624H15.3711V2.67383Z" fill="#C8C8C8"/>
</svg>
