<svg width="21" height="14" viewBox="0 0 21 14" fill="none" xmlns="http://www.w3.org/2000/svg">
<path fill-rule="evenodd" clip-rule="evenodd" d="M18.5638 0.417942C19.4243 0.647912 20.1019 1.32566 20.3319 2.1861C20.7499 3.74583 20.7499 6.99994 20.7499 6.99994C20.7499 6.99994 20.7499 10.2542 20.3319 11.8138C20.1019 12.6742 19.4243 13.352 18.5638 13.5819C17.004 14 10.7499 14 10.7499 14C10.7499 14 4.49581 14 2.93609 13.5819C2.07565 13.352 1.3979 12.6742 1.16794 11.8138C0.75 10.2542 0.75 6.99994 0.75 6.99994C0.75 6.99994 0.75 3.74583 1.16794 2.1861C1.3979 1.32566 2.07565 0.647912 2.93609 0.417942C4.49581 0 10.7499 0 10.7499 0C10.7499 0 17.004 0 18.5638 0.417942ZM13.9459 7.00004L8.74994 10V3.99999L13.9459 7.00004Z" fill="#C8C8C8"/>
</svg>
