<?xml version="1.0" standalone="no"?>
<!DOCTYPE svg PUBLIC "-//W3C//DTD SVG 20010904//EN"
 "http://www.w3.org/TR/2001/REC-SVG-20010904/DTD/svg10.dtd">
<svg version="1.0" xmlns="http://www.w3.org/2000/svg"
 width="1408.000000pt" height="1408.000000pt" viewBox="0 0 1408.000000 1408.000000"
 preserveAspectRatio="xMidYMid meet">
<metadata>
Created by potrace 1.11, written by Peter Selinger 2001-2013
</metadata>
<g transform="translate(0.000000,1408.000000) scale(0.100000,-0.100000)"
fill="#000000" stroke="none">
<path d="M2612 14060 c-18 -11 -37 -32 -42 -46 -7 -16 -10 -2485 -10 -6975 0
-6049 2 -6954 14 -6978 34 -65 -52 -61 1205 -61 l1140 0 35 34 c35 33 36 35
36 112 1 44 1 1074 2 2290 l0 2212 1092 1 c1018 0 1192 2 1321 16 176 19 182
20 295 40 52 10 107 18 121 20 15 1 31 5 36 8 4 3 28 8 53 12 24 4 52 11 62
16 10 5 18 8 18 5 0 -2 24 2 53 10 28 8 62 17 75 20 38 8 264 81 322 104 30
12 60 23 65 25 37 9 348 146 366 162 8 7 21 13 27 13 6 0 34 14 62 30 28 17
53 30 57 30 3 0 69 38 147 86 77 47 150 90 161 97 11 7 22 14 25 18 3 3 22 15
43 28 21 13 43 28 50 34 7 7 35 27 62 46 45 31 223 168 235 181 3 3 21 18 40
34 116 94 321 293 452 437 68 75 76 84 138 159 19 23 40 47 45 53 6 7 33 41
60 77 28 36 53 67 58 68 4 2 7 8 7 13 0 10 10 24 43 60 9 10 17 21 17 24 0 3
18 30 40 60 22 30 40 58 40 64 0 5 3 11 8 13 9 4 52 65 52 73 0 4 13 25 28 48
116 170 301 538 415 827 28 71 116 325 122 351 2 9 13 46 24 84 12 37 23 77
25 89 2 11 14 59 26 106 25 96 23 87 51 235 12 61 23 119 25 130 9 45 18 122
19 153 0 17 3 32 6 32 3 0 5 12 4 28 -1 15 1 31 4 37 2 5 6 25 7 45 1 19 6 80
10 135 11 121 11 595 1 720 -9 107 -16 177 -22 225 -7 58 -25 181 -30 204 -2
12 -7 37 -10 56 -6 44 -12 76 -31 165 -9 38 -17 77 -19 85 -1 8 -8 35 -15 60
-7 25 -14 52 -15 60 -2 8 -4 15 -5 15 -1 0 -3 7 -5 15 -30 143 -146 474 -240
685 -54 123 -169 345 -227 440 -10 17 -22 41 -28 54 -6 13 -23 42 -39 65 -15
22 -50 75 -77 116 -98 151 -269 377 -369 489 -109 123 -262 279 -361 370 -98
89 -130 117 -268 228 -104 84 -377 273 -395 273 -6 0 -11 4 -11 8 0 5 -15 16
-32 25 -18 9 -53 29 -78 43 -25 15 -61 36 -80 47 -43 24 -293 151 -300 152 -3
0 -21 8 -40 17 -19 9 -64 28 -100 42 -36 15 -74 31 -85 35 -41 18 -133 53
-146 55 -8 2 -21 6 -29 9 -69 28 -382 117 -463 133 -12 2 -33 6 -47 9 -14 3
-36 8 -50 10 -34 7 -177 32 -222 39 -21 3 -53 8 -70 11 -18 3 -54 6 -80 7 -27
2 -48 5 -48 8 0 11 -222 13 -2475 16 -2342 4 -2350 4 -2383 -16z m4678 -215
c47 -3 105 -8 130 -10 25 -2 65 -6 90 -9 25 -3 63 -8 85 -10 22 -3 54 -7 70
-10 41 -8 244 -46 275 -52 181 -35 538 -152 747 -245 143 -63 349 -168 455
-232 155 -93 371 -239 443 -299 11 -10 49 -40 85 -68 106 -84 176 -148 314
-285 168 -167 232 -238 389 -435 7 -8 23 -31 37 -50 13 -19 28 -39 33 -45 27
-32 131 -186 168 -248 24 -39 47 -73 51 -75 5 -2 8 -7 8 -12 0 -5 23 -48 51
-97 50 -86 209 -405 213 -427 1 -6 12 -32 24 -58 12 -26 22 -50 22 -53 0 -4 6
-21 14 -38 13 -30 50 -126 52 -137 0 -3 3 -12 7 -20 11 -27 76 -236 81 -261 3
-13 19 -75 35 -138 16 -63 30 -117 29 -120 0 -3 1 -8 2 -11 3 -8 7 -30 19
-100 6 -36 16 -85 21 -110 6 -25 12 -67 15 -95 2 -27 7 -63 10 -79 10 -48 26
-265 28 -376 l2 -75 -442 0 -443 -1 -1 56 c-2 81 -15 241 -24 285 -2 11 -7 43
-10 70 -9 84 -13 107 -35 210 -11 55 -23 114 -26 130 -3 17 -10 38 -15 48 -5
9 -8 17 -5 17 11 0 -106 349 -150 447 -31 69 -47 106 -49 113 -3 11 -98 198
-127 250 -42 75 -211 330 -237 357 -12 12 -21 25 -21 28 0 31 -411 465 -493
520 -8 6 -46 35 -83 66 -168 136 -393 281 -589 379 -49 25 -92 47 -95 50 -3 3
-10 6 -15 7 -6 1 -39 14 -75 30 -60 27 -124 54 -175 73 -11 4 -31 12 -45 18
-67 27 -303 98 -394 118 -159 35 -358 70 -461 80 -27 2 -72 7 -100 10 -27 2
-107 6 -177 8 -70 2 -132 7 -137 11 -6 3 -11 2 -11 -4 0 -5 -10 -7 -22 -5 -13
3 -29 5 -35 5 -135 -3 -285 -1 -293 4 -5 3 -10 2 -10 -4 0 -9 -31 -8 -48 3 -4
2 -14 1 -22 -4 -8 -5 -22 -5 -32 1 -12 6 -18 6 -18 0 0 -5 -10 -7 -22 -5 -13
3 -29 5 -35 5 -135 -3 -285 -1 -293 4 -5 3 -10 2 -10 -4 0 -9 -31 -8 -48 3 -4
2 -14 1 -22 -4 -8 -5 -22 -5 -32 1 -12 6 -18 6 -18 0 0 -5 -10 -7 -22 -5 -13
3 -29 5 -35 5 -135 -3 -285 -1 -293 4 -5 3 -10 2 -10 -4 0 -9 -31 -8 -48 3 -4
2 -14 1 -22 -4 -8 -5 -22 -5 -32 1 -12 6 -18 6 -18 0 0 -5 -10 -7 -22 -5 -13
3 -29 5 -35 5 -7 0 -69 0 -138 0 -69 0 -132 0 -140 0 -8 0 -44 0 -80 0 -36 0
-72 0 -80 0 -8 0 -44 0 -80 0 -36 0 -72 0 -80 0 -8 0 -44 0 -80 0 -36 0 -72 0
-80 0 -8 0 -44 0 -80 0 -36 0 -72 0 -80 0 -8 0 -44 0 -80 0 -36 0 -72 0 -80 0
-8 0 -44 0 -80 0 -36 0 -72 0 -80 0 -8 0 -44 0 -80 0 -36 0 -71 0 -77 1 -7 0
-17 -1 -23 -2 -5 -1 -36 -2 -67 -1 l-57 1 -103 106 c-120 123 -171 176 -488
504 -129 134 -245 252 -257 263 -13 12 -23 25 -23 31 0 12 4191 13 4340 1z
m-4090 -585 c141 -146 304 -314 362 -374 l104 -108 -1 -5742 0 -5741 -180
-183 c-99 -100 -179 -182 -179 -182 1 0 -61 -64 -138 -142 -76 -79 -195 -201
-264 -272 l-124 -129 0 6653 0 6654 81 -84 c45 -47 197 -204 339 -350z m3875
-554 c66 -4 134 -9 150 -11 17 -2 57 -6 89 -10 32 -3 62 -7 65 -9 3 -2 33 -7
66 -11 32 -3 62 -8 65 -10 3 -2 21 -6 40 -9 19 -3 46 -8 60 -11 14 -3 36 -8
50 -11 14 -3 41 -9 60 -14 19 -5 40 -10 45 -11 6 -1 20 -5 33 -10 12 -5 34
-11 47 -13 37 -7 259 -84 323 -112 32 -14 57 -25 57 -24 0 5 73 -28 173 -77
131 -65 271 -145 380 -219 41 -27 81 -53 90 -59 10 -5 19 -12 22 -16 3 -3 23
-18 45 -35 22 -16 45 -33 51 -39 7 -5 31 -26 55 -45 118 -94 305 -280 419
-416 46 -55 150 -192 150 -199 0 -3 8 -14 17 -25 32 -33 145 -222 208 -345 87
-169 217 -500 239 -610 3 -11 14 -60 26 -110 12 -49 24 -100 26 -112 5 -28 11
-60 18 -93 3 -14 8 -44 11 -67 3 -23 7 -57 10 -75 10 -66 14 -115 21 -224 l6
-110 -442 0 c-386 1 -443 3 -445 16 -1 8 -5 53 -9 100 -4 47 -8 94 -10 105 -2
11 -8 45 -12 75 -4 30 -9 57 -9 60 -12 43 -15 59 -19 80 -27 169 -175 527
-288 698 -26 41 -48 77 -48 82 0 5 -3 10 -8 12 -4 2 -27 31 -52 65 -86 116
-247 286 -350 370 -19 15 -44 36 -55 46 -11 10 -32 26 -47 35 -16 9 -28 20
-28 24 0 4 -4 8 -8 8 -5 0 -49 27 -99 60 -99 65 -307 172 -418 215 -74 29
-266 92 -300 100 -11 2 -31 7 -45 10 -43 10 -223 43 -272 49 -27 3 -69 9 -94
12 -25 3 -96 7 -157 9 -62 2 -114 4 -117 6 -3 1 -9 0 -15 -1 -28 -6 -175 -4
-175 2 0 4 -6 5 -14 2 -24 -9 -106 -11 -106 -2 0 4 -7 5 -15 2 -22 -9 -185
-10 -185 -2 0 4 -6 5 -14 2 -24 -9 -106 -11 -106 -2 0 4 -7 5 -15 2 -22 -9
-185 -10 -185 -2 0 4 -6 5 -14 2 -24 -9 -106 -11 -106 -2 0 4 -7 5 -15 2 -22
-9 -185 -10 -185 -2 0 4 -6 5 -14 2 -24 -9 -106 -11 -106 -2 0 4 -7 5 -15 2
-22 -9 -185 -10 -185 -2 0 4 -6 5 -14 2 -25 -10 -106 -11 -106 -2 0 5 -5 6
-11 3 -8 -6 -242 -9 -318 -6 -13 1 -49 36 -401 400 -438 453 -488 505 -485
511 5 7 2878 4 3020 -4z m-2907 -445 c274 -282 390 -401 510 -524 l95 -98 -1
-2242 c0 -1233 -1 -2258 -1 -2277 -1 -31 -18 -52 -154 -191 -83 -86 -262 -270
-397 -409 -257 -265 -330 -340 -333 -340 -2 0 0 6364 2 6367 0 2 15 -12 32
-30 17 -17 128 -133 247 -256z m2864 -695 c96 -7 292 -33 318 -42 8 -3 30 -8
47 -10 40 -5 140 -31 154 -39 6 -4 24 -9 41 -12 76 -12 369 -139 476 -207 23
-14 46 -26 51 -26 5 0 11 -4 13 -8 2 -4 21 -19 43 -32 46 -28 35 -20 150 -111
94 -75 242 -219 291 -285 16 -22 34 -43 40 -49 45 -41 234 -354 234 -387 0
-10 5 -18 10 -18 6 0 10 -6 10 -14 0 -8 13 -44 30 -80 16 -36 27 -66 24 -66
-2 0 2 -13 10 -29 8 -15 17 -39 20 -52 3 -13 12 -49 20 -79 8 -30 17 -66 20
-80 3 -14 7 -36 10 -50 6 -26 32 -205 36 -250 9 -95 0 -449 -14 -516 -2 -12
-7 -39 -11 -60 -12 -70 -13 -79 -18 -100 -3 -12 -8 -38 -11 -59 -3 -20 -11
-45 -16 -56 -6 -10 -8 -19 -6 -19 3 0 -2 -19 -10 -42 -9 -24 -17 -47 -18 -53
-5 -26 -29 -94 -46 -130 -9 -22 -21 -51 -25 -65 -12 -40 -115 -238 -168 -325
-178 -286 -429 -542 -706 -716 -36 -23 -78 -50 -93 -60 -15 -11 -34 -19 -42
-19 -8 0 -16 -3 -18 -7 -6 -14 -256 -126 -308 -139 -3 0 -12 -4 -20 -7 -19 -8
-199 -57 -225 -61 -11 -2 -38 -7 -60 -11 -22 -5 -49 -10 -60 -11 -11 -1 -20
-3 -20 -4 0 -1 -18 -3 -40 -5 -22 -2 -69 -6 -105 -10 -66 -6 -2002 -13 -2031
-7 -15 3 -16 188 -16 2203 0 1791 2 2201 13 2207 15 9 1896 7 2026 -2z m3154
-2336 c-8 -115 -12 -164 -21 -225 -3 -22 -7 -56 -10 -75 -4 -34 -10 -69 -20
-120 -2 -13 -7 -40 -10 -60 -3 -19 -14 -69 -25 -110 -11 -41 -22 -86 -24 -100
-11 -60 -121 -386 -138 -405 -4 -5 -8 -15 -8 -22 0 -8 -25 -66 -55 -129 -30
-64 -55 -117 -55 -119 0 -25 -290 -491 -323 -520 -7 -5 -25 -28 -41 -50 -48
-64 -188 -226 -257 -294 -119 -121 -322 -294 -416 -356 -24 -15 -43 -32 -43
-36 0 -5 -4 -9 -9 -9 -4 0 -49 -27 -99 -60 -51 -33 -96 -60 -101 -60 -5 0 -11
-3 -13 -8 -6 -13 -343 -186 -379 -194 -8 -2 -16 -5 -19 -8 -9 -9 -309 -116
-346 -123 -10 -2 -26 -7 -34 -10 -19 -8 -98 -28 -130 -33 -14 -3 -38 -9 -55
-14 -16 -5 -48 -12 -70 -15 -22 -4 -51 -8 -65 -11 -14 -2 -45 -7 -70 -10 -25
-3 -54 -8 -65 -10 -26 -6 -88 -12 -195 -20 -101 -7 -3040 -11 -3040 -4 0 3 61
68 136 145 323 333 578 596 656 677 l84 87 1087 1 c598 1 1087 5 1087 8 0 4
21 8 48 10 26 1 54 4 62 6 8 1 33 6 55 10 87 16 231 49 245 56 8 5 29 10 45
13 84 16 453 174 463 199 2 4 7 8 12 8 32 0 267 162 400 275 45 38 235 230
279 281 34 40 178 235 196 265 85 145 192 346 200 379 1 3 5 14 10 25 31 77
65 173 71 198 1 4 2 9 3 12 0 3 1 6 1 8 0 1 8 27 19 59 17 48 26 90 56 238 3
14 7 41 10 60 3 19 7 46 10 58 2 13 7 63 11 110 6 88 10 127 13 127 0 0 200 0
442 0 l441 0 -6 -105z m1108 40 c-2 -72 -12 -275 -14 -275 -3 0 -7 -33 -14
-100 -8 -85 -9 -94 -31 -220 -21 -124 -23 -133 -29 -153 -3 -9 -8 -33 -11 -52
-4 -29 -15 -81 -20 -100 -1 -3 -5 -18 -9 -35 -4 -16 -10 -37 -13 -45 -3 -8 -7
-24 -9 -35 -3 -21 -61 -220 -71 -245 -3 -8 -8 -21 -10 -27 -1 -7 -5 -19 -6
-25 -2 -7 -7 -20 -10 -28 -3 -8 -14 -40 -25 -70 -34 -94 -90 -236 -123 -307
-71 -159 -104 -228 -109 -233 -3 -3 -18 -32 -35 -65 -55 -112 -231 -407 -247
-413 -4 -2 -8 -8 -8 -13 0 -17 -217 -313 -275 -375 -5 -6 -21 -25 -35 -43 -79
-102 -368 -398 -489 -501 -180 -153 -238 -200 -249 -200 -6 0 -12 -3 -14 -8
-7 -16 -162 -123 -358 -247 -134 -85 -418 -226 -600 -299 -141 -56 -402 -142
-460 -152 -8 -1 -52 -12 -98 -24 -46 -12 -86 -19 -89 -16 -4 3 -11 2 -17 -3
-6 -5 -29 -12 -50 -15 -21 -4 -48 -9 -60 -11 -12 -3 -37 -7 -56 -9 -19 -2 -64
-9 -100 -15 -72 -11 -159 -20 -260 -28 -36 -3 -582 -6 -1213 -7 l-1148 -2
-212 219 c-211 218 -379 390 -568 584 -54 56 -99 104 -99 107 0 2 674 5 1498
6 823 0 1513 2 1532 4 19 3 71 7 115 11 44 4 91 8 105 10 14 2 43 6 65 10 22
3 54 8 70 12 17 3 40 7 52 9 12 1 34 5 50 8 43 10 76 17 102 22 14 3 58 14
100 26 41 11 80 21 86 23 5 1 17 4 25 8 24 9 174 57 190 62 17 4 102 38 200
80 68 29 227 107 295 145 74 41 270 162 275 169 3 3 19 15 35 25 47 29 174
125 245 186 36 30 71 59 78 65 30 24 261 254 302 300 77 87 104 119 135 159
17 22 48 62 69 90 166 214 358 554 469 831 53 132 134 380 152 465 2 8 11 47
20 85 9 39 19 79 21 90 10 48 27 142 29 160 2 11 8 58 15 104 12 90 17 137 25
276 4 50 8 95 9 100 2 7 154 10 442 10 l439 0 -1 -65z m-7289 -3762 c59 -62
217 -225 350 -363 133 -137 281 -290 329 -339 47 -49 86 -94 87 -100 1 -14 1
-4310 0 -4313 -1 -3 -34 31 -299 304 -81 83 -246 253 -367 378 l-220 227 0
2159 c0 1187 2 2159 5 2159 3 0 55 -51 115 -112z m-111 -4535 c63 -65 153
-158 201 -208 48 -49 182 -187 297 -306 116 -120 211 -220 212 -225 1 -5
-1563 -10 -1653 -5 -8 1 31 47 86 104 55 56 136 139 179 184 240 248 558 573
561 573 1 0 54 -53 117 -117z"/>
</g>
</svg>
