<svg width="32" height="25" viewBox="0 0 32 25" fill="none" xmlns="http://www.w3.org/2000/svg">
<path fill-rule="evenodd" clip-rule="evenodd" d="M6.72406 2H0V0H8.27594L9.42979 4.5H31.2888L27.3144 20H11.3394L6.72406 2ZM9.94261 6.5L12.8913 18H25.7625L28.7112 6.5H9.94261Z" fill="#006EC8"/>
<path d="M15 23.5C15 24.3284 14.3284 25 13.5 25C12.6716 25 12 24.3284 12 23.5C12 22.6716 12.6716 22 13.5 22C14.3284 22 15 22.6716 15 23.5Z" fill="#006EC8"/>
<path fill-rule="evenodd" clip-rule="evenodd" d="M13.5 24C13.7761 24 14 23.7761 14 23.5C14 23.2239 13.7761 23 13.5 23C13.2239 23 13 23.2239 13 23.5C13 23.7761 13.2239 24 13.5 24ZM13.5 25C14.3284 25 15 24.3284 15 23.5C15 22.6716 14.3284 22 13.5 22C12.6716 22 12 22.6716 12 23.5C12 24.3284 12.6716 25 13.5 25Z" fill="#006EC8"/>
<path d="M26 23.5C26 24.3284 25.3284 25 24.5 25C23.6716 25 23 24.3284 23 23.5C23 22.6716 23.6716 22 24.5 22C25.3284 22 26 22.6716 26 23.5Z" fill="#006EC8"/>
<path fill-rule="evenodd" clip-rule="evenodd" d="M24.5 24C24.7761 24 25 23.7761 25 23.5C25 23.2239 24.7761 23 24.5 23C24.2239 23 24 23.2239 24 23.5C24 23.7761 24.2239 24 24.5 24ZM24.5 25C25.3284 25 26 24.3284 26 23.5C26 22.6716 25.3284 22 24.5 22C23.6716 22 23 22.6716 23 23.5C23 24.3284 23.6716 25 24.5 25Z" fill="#006EC8"/>
</svg>
