<svg width="2000" height="453" viewBox="0 0 2000 453" fill="none" xmlns="http://www.w3.org/2000/svg">
<path d="M167.447 108.718H189.493C188.793 87.2581 179.926 68.9297 166.009 55.6853C150.913 41.3173 129.88 32.8991 106.876 32.8991H36.7742L58.7834 54.9116H106.876C123.853 54.9116 139.226 60.843 150.249 71.0849C160.332 80.4609 166.765 93.4106 167.447 108.718V108.718ZM194.931 108.718H216.977C216.258 80.5346 204.535 55.0774 185.954 36.4911C166.765 17.3153 140.24 5.43406 110.949 5.43406H9.29033L31.318 27.465H106.876C131.281 27.465 153.659 36.4358 169.751 51.7433C184.719 65.9824 194.249 85.6739 194.931 108.718V108.718ZM216.977 114.152H194.931C194.231 137.38 184.516 158.361 169.161 173.687C153.217 189.621 131.189 199.494 106.876 199.494H36.7558L58.7834 221.507H110.949C139.945 221.507 166.23 208.889 185.364 189.032C204.295 169.414 216.258 142.722 216.977 114.152V114.152ZM189.493 114.152H167.447C166.765 129.81 160.129 143.92 149.751 154.29C138.783 165.251 123.613 172.029 106.876 172.029H58.7834L36.7742 194.042H106.876C129.696 194.042 150.36 184.795 165.327 169.856C179.687 155.488 188.793 135.888 189.493 114.152V114.152ZM222.452 111.426C222.452 142.446 209.751 171.569 189.29 192.789C169.143 213.678 141.475 226.941 110.949 226.941H60.3871V336.083C60.3871 337.575 59.1705 338.791 57.6774 338.791H2.72811C1.21659 338.791 0 337.575 0 336.083V2.72624C0 1.21576 1.21659 0 2.72811 0H110.949C141.733 0 169.622 12.4707 189.788 32.6412C209.972 52.8117 222.452 80.6635 222.452 111.426V111.426ZM32.9032 36.7306V190.229L54.9493 168.198V58.7431L32.9032 36.7306V36.7306ZM32.9032 203.326V307.494L54.9493 329.507V225.357L32.9032 203.326V203.326ZM27.4839 307.494V31.3149L5.43779 9.28395V329.507L27.4839 307.494ZM30.1936 312.468L9.29033 333.356H51.0968L30.1936 312.468ZM60.3871 60.3457V166.595H106.876C122.12 166.595 135.926 160.424 145.899 150.441C155.889 140.475 162.065 126.678 162.065 111.444C162.065 96.542 156.148 83.9792 146.544 75.0453C136.516 65.7429 122.47 60.3457 106.876 60.3457H60.3871Z" fill="#323232"/>
<path d="M548.019 31.2412V307.549L568.516 329.249V9.56026L548.019 31.2412V31.2412ZM542.581 307.549V31.2412L522.083 9.56026V329.249L542.581 307.549ZM545.825 313.131L545.291 313.186L544.774 313.131L525.659 333.356H564.94L545.825 313.131ZM525.659 5.43406L545.291 26.2124L564.94 5.43406H525.659ZM516.627 336.064V2.72624C516.627 1.21576 517.844 0 519.355 0H571.245C572.756 0 573.973 1.21576 573.973 2.72624V336.064C573.973 337.575 572.756 338.791 571.245 338.791H519.355C517.844 338.791 516.627 337.575 516.627 336.064Z" fill="#323232"/>
<path d="M354.985 149.318C375.685 149.318 394.413 157.7 407.98 171.257C420.957 184.207 429.197 201.909 429.897 221.509H447.851C447.151 196.936 436.902 174.757 420.68 158.566C403.869 141.766 380.644 131.377 354.985 131.377C329.326 131.377 306.081 141.766 289.27 158.566C273.067 174.757 262.8 196.936 262.1 221.509H280.072C280.773 201.909 289.012 184.207 301.971 171.257C315.538 157.7 334.284 149.318 354.985 149.318ZM404.146 175.107C391.556 162.526 374.174 154.753 354.985 154.753C335.777 154.753 318.395 162.526 305.823 175.107C293.252 187.67 285.455 205.041 285.455 224.216C285.455 243.411 293.252 260.781 305.823 273.344C318.395 285.925 335.777 293.699 354.985 293.699C374.174 293.699 391.556 285.925 404.146 273.344C416.717 260.781 424.496 243.411 424.496 224.216C424.496 205.041 416.717 187.67 404.146 175.107V175.107ZM429.897 226.943C429.197 246.542 420.957 264.244 407.98 277.194C394.413 290.751 375.685 299.133 354.985 299.133C334.284 299.133 315.538 290.751 301.971 277.194C289.012 264.244 280.773 246.542 280.072 226.943H262.1C262.8 251.516 273.049 273.676 289.27 289.886C306.081 306.685 329.326 317.074 354.985 317.074C380.644 317.074 403.869 306.685 420.68 289.886C436.902 273.676 447.151 251.516 447.851 226.943H429.897V226.943ZM354.985 102.53C388.607 102.53 419.058 116.161 441.086 138.174C463.114 160.205 476.754 190.617 476.754 224.216C476.754 257.815 463.114 288.246 441.086 310.277C419.058 332.29 388.607 345.921 354.985 345.921C321.362 345.921 290.911 332.29 268.883 310.277C246.837 288.246 233.215 257.834 233.215 224.216C233.215 190.617 246.837 160.205 268.883 138.174C290.911 116.161 321.362 102.53 354.985 102.53V102.53ZM437.233 142.024C416.183 120.988 387.114 107.983 354.985 107.983C322.855 107.983 293.768 120.988 272.717 142.024C252.275 162.452 239.39 190.488 238.69 221.509H256.643C257.362 195.443 268.22 171.902 285.436 154.716C303.224 136.94 327.814 125.924 354.985 125.924C382.137 125.924 406.727 136.94 424.533 154.716C441.731 171.902 452.588 195.443 453.307 221.509H471.28C470.561 190.488 457.694 162.452 437.233 142.024V142.024ZM437.233 306.427C457.694 285.98 470.561 257.963 471.28 226.943H453.307C452.588 253.008 441.731 276.531 424.533 293.735C406.727 311.511 382.137 322.527 354.985 322.527C327.814 322.527 303.224 311.511 285.418 293.735C268.219 276.531 257.362 253.008 256.643 226.943H238.69C239.39 257.963 252.275 285.999 272.717 306.427C293.768 327.464 322.855 340.468 354.985 340.468C387.114 340.468 416.201 327.464 437.233 306.427V306.427Z" fill="#323232"/>
<path d="M1265.4 149.318C1286.1 149.318 1304.85 157.7 1318.42 171.257C1331.37 184.207 1339.61 201.909 1340.31 221.509H1358.29C1357.57 196.936 1347.32 174.757 1331.12 158.566C1314.31 141.766 1291.06 131.377 1265.4 131.377C1239.74 131.377 1216.5 141.766 1199.69 158.566C1183.49 174.757 1173.24 196.936 1172.52 221.509H1190.49C1191.19 201.909 1199.43 184.207 1212.39 171.257C1225.96 157.7 1244.7 149.318 1265.4 149.318ZM1314.56 175.107C1301.99 162.526 1284.61 154.753 1265.4 154.753C1246.19 154.753 1228.81 162.526 1216.24 175.107C1203.67 187.67 1195.89 205.041 1195.89 224.216C1195.89 243.411 1203.67 260.781 1216.24 273.344C1228.81 285.925 1246.19 293.699 1265.4 293.699C1284.61 293.699 1301.99 285.925 1314.56 273.344C1327.14 260.781 1334.91 243.411 1334.91 224.216C1334.91 205.041 1327.14 187.67 1314.56 175.107V175.107ZM1340.31 226.943C1339.61 246.542 1331.37 264.244 1318.42 277.194C1304.85 290.751 1286.1 299.133 1265.4 299.133C1244.7 299.133 1225.96 290.751 1212.39 277.194C1199.43 264.244 1191.19 246.542 1190.49 226.943H1172.52C1173.24 251.516 1183.49 273.676 1199.69 289.886C1216.5 306.685 1239.74 317.074 1265.4 317.074C1291.06 317.074 1314.31 306.685 1331.12 289.886C1347.32 273.676 1357.57 251.516 1358.29 226.943H1340.31ZM1265.4 102.53C1299.02 102.53 1329.48 116.161 1351.5 138.174C1373.55 160.205 1387.17 190.617 1387.17 224.216C1387.17 257.815 1373.55 288.246 1351.5 310.277C1329.48 332.29 1299.02 345.921 1265.4 345.921C1231.78 345.921 1201.33 332.29 1179.3 310.277C1157.25 288.246 1143.63 257.834 1143.63 224.216C1143.63 190.617 1157.25 160.205 1179.3 138.174C1201.33 116.161 1231.78 102.53 1265.4 102.53V102.53ZM1347.67 142.024C1326.62 120.988 1297.53 107.983 1265.4 107.983C1233.27 107.983 1204.19 120.988 1183.15 142.024C1162.69 162.452 1149.83 190.488 1149.11 221.509H1167.08C1167.78 195.443 1178.64 171.902 1195.85 154.716C1213.64 136.94 1238.25 125.924 1265.4 125.924C1292.55 125.924 1317.16 136.94 1334.95 154.716C1352.17 171.902 1363.02 195.443 1363.72 221.509H1381.7C1380.98 190.488 1368.11 162.452 1347.67 142.024ZM1347.67 306.427C1368.11 285.98 1380.98 257.963 1381.7 226.943H1363.72C1363.02 253.008 1352.17 276.531 1334.95 293.735C1317.16 311.511 1292.55 322.527 1265.4 322.527C1238.25 322.527 1213.64 311.511 1195.85 293.735C1178.64 276.531 1167.78 253.008 1167.08 226.943H1149.11C1149.83 257.963 1162.69 285.999 1183.15 306.427C1204.19 327.464 1233.27 340.468 1265.4 340.468C1297.53 340.468 1326.62 327.464 1347.67 306.427Z" fill="#323232"/>
<path d="M1974.05 31.2412V307.549L1994.56 329.249V9.56026L1974.05 31.2412V31.2412ZM1968.61 307.549V31.2412L1948.11 9.56026V329.249L1968.61 307.549ZM1971.85 313.131L1971.34 313.186L1970.8 313.131L1951.69 333.356H1990.97L1971.85 313.131V313.131ZM1951.69 5.43406L1971.34 26.2124L1990.97 5.43406H1951.69V5.43406ZM1942.67 336.064V2.72624C1942.67 1.21576 1943.89 0 1945.38 0H1997.27C1998.78 0 2000 1.21576 2000 2.72624V336.064C2000 337.575 1998.78 338.791 1997.27 338.791H1945.38C1943.89 338.791 1942.67 337.575 1942.67 336.064Z" fill="#323232"/>
<path d="M1846.75 224.419V224.032C1846.49 205.096 1838.89 187.394 1826.12 174.628C1813.94 162.452 1797.01 154.753 1777.22 154.753C1758.03 154.753 1740.65 162.526 1728.06 175.107C1715.48 187.67 1707.71 205.041 1707.71 224.235C1707.71 243.411 1715.48 260.781 1728.06 273.344C1740.65 285.925 1758.03 293.699 1777.22 293.699C1797 293.699 1813.94 285.999 1826.12 273.823C1838.89 261.057 1846.49 243.355 1846.75 224.419V224.419ZM1852.09 221.509H1864.3V191.851C1857.7 173.91 1845.84 158.639 1830.53 147.937C1815.56 137.474 1797.25 131.358 1777.22 131.358C1751.56 131.358 1728.33 141.766 1711.52 158.566C1695.3 174.776 1685.05 196.954 1684.33 221.509H1702.3C1703 201.909 1711.24 184.225 1724.22 171.257C1737.79 157.7 1756.52 149.318 1777.22 149.318C1798.54 149.318 1816.79 157.626 1829.95 170.778C1843.15 183.967 1851.23 202.056 1852.09 221.509ZM1864.3 226.943H1852.09C1851.23 246.395 1843.15 264.484 1829.95 277.673C1816.79 290.825 1798.53 299.133 1777.22 299.133C1756.52 299.133 1737.79 290.751 1724.22 277.194C1711.24 264.244 1703 246.542 1702.3 226.943H1684.33C1685.05 251.516 1695.3 273.694 1711.52 289.886C1728.33 306.704 1751.56 317.093 1777.22 317.093C1797.25 317.093 1815.56 310.977 1830.53 300.514C1845.84 289.812 1857.7 274.541 1864.3 256.618V226.943ZM1869.73 224.069C1870.54 251.902 1869.73 281.044 1869.73 309.025L1890.25 329.508V117.911L1869.73 138.413V224.069V224.069ZM1678.89 226.943H1660.92C1661.64 257.963 1674.51 285.999 1694.97 306.427C1716.02 327.464 1745.09 340.468 1777.22 340.468C1790.82 340.468 1802.56 338.147 1812.59 333.874C1823.12 329.398 1831.83 322.729 1838.89 314.366L1839.28 313.943C1846.3 306.464 1851.76 298.101 1855.85 288.725C1857.42 285.133 1858.77 281.412 1859.95 277.507C1853.05 288.301 1844.11 297.641 1833.64 304.954C1817.77 316.043 1798.38 322.527 1777.22 322.527C1750.06 322.527 1725.47 311.53 1707.67 293.735C1690.47 276.549 1679.59 253.008 1678.89 226.943V226.943ZM1660.92 221.509H1678.89C1679.59 195.443 1690.47 171.92 1707.67 154.716C1725.47 136.921 1750.06 125.924 1777.22 125.924C1798.38 125.924 1817.77 132.408 1833.64 143.498C1844.11 150.811 1853.05 160.15 1859.95 170.944C1858.77 167.057 1857.42 163.318 1855.85 159.744C1851.74 150.313 1846.27 141.932 1839.21 134.435L1838.99 134.195C1831.91 125.777 1823.17 119.09 1812.59 114.577C1802.56 110.304 1790.82 107.983 1777.22 107.983C1745.09 107.983 1716.02 120.988 1694.97 142.024C1674.51 162.471 1661.64 190.488 1660.92 221.509V221.509ZM1841.07 108.646H1892.96C1894.47 108.646 1895.69 109.862 1895.69 111.354V336.084C1895.69 337.576 1894.47 338.792 1892.96 338.792H1841.07C1839.58 338.792 1838.36 337.576 1838.36 336.084V322.969C1831.69 329.6 1823.83 334.979 1814.71 338.866C1804 343.434 1791.56 345.921 1777.22 345.921C1743.59 345.921 1713.16 332.29 1691.12 310.277C1669.09 288.246 1655.45 257.815 1655.45 224.235C1655.45 190.636 1669.09 160.205 1691.12 138.174C1713.16 116.161 1743.59 102.53 1777.22 102.53C1791.56 102.53 1804 105.017 1814.71 109.585C1823.83 113.472 1831.69 118.851 1838.36 125.482V111.354C1838.36 109.862 1839.58 108.646 1841.07 108.646V108.646ZM1886.4 114.08H1847.65L1867.02 133.44L1886.4 114.08ZM1847.65 333.358H1886.4L1867.02 313.998L1847.65 333.358ZM1843.8 317.056V329.508L1864.3 309.025V281.762C1863.26 284.894 1862.1 287.933 1860.83 290.88C1856.59 300.606 1850.99 309.282 1843.8 317.056V317.056ZM1843.8 117.911V131.395C1850.99 139.169 1856.59 147.845 1860.83 157.571C1862.1 160.518 1863.26 163.558 1864.3 166.689V138.413L1843.8 117.911V117.911Z" fill="#323232"/>
<path d="M1620.59 223.719V336.084C1620.59 337.576 1619.36 338.792 1617.86 338.792H1565.97C1564.46 338.792 1563.24 337.576 1563.24 336.084V224.235C1563.24 203.051 1560.19 184.41 1552.7 171.755C1546.42 161.144 1536.89 154.753 1523.23 154.753C1509.38 154.753 1498.56 161.015 1491.19 172.455C1483.47 184.446 1479.37 202.093 1479.37 224.235V336.084C1479.37 337.576 1478.16 338.792 1476.66 338.792H1424.76C1423.26 338.792 1422.05 337.576 1422.05 336.084V111.354C1422.05 109.862 1423.26 108.646 1424.76 108.646H1476.66C1478.16 108.646 1479.37 109.862 1479.37 111.354V124.672C1485.05 119.072 1492.39 113.785 1500.98 109.788C1510.43 105.385 1521.46 102.53 1533.49 102.53C1563.58 102.53 1584.37 114.725 1598.12 134.029C1614.4 156.871 1620.59 189.641 1620.59 223.719V223.719ZM1615.13 329.508V226.943H1594.62V309.024L1615.13 329.508ZM1572.54 333.358H1611.3L1591.91 313.998L1572.54 333.358ZM1568.68 226.943V329.527L1589.2 309.024V226.943H1568.68ZM1557.36 168.992C1565.07 181.996 1568.41 200.546 1568.66 221.509H1589.18C1588.87 193.03 1583.69 170.115 1573.16 154.513C1563.1 139.592 1547.98 131.358 1527.37 131.358C1506.62 131.358 1488.85 141.987 1475.96 158.05C1462.29 175.107 1454.07 198.28 1453.48 221.509H1473.95C1474.29 199.607 1478.64 181.886 1486.62 169.526C1495.04 156.466 1507.39 149.318 1523.23 149.318C1539.06 149.318 1550.1 156.705 1557.36 168.992V168.992ZM1473.94 329.508V226.943H1453.44V309.024L1473.94 329.508ZM1431.34 333.358H1470.08L1450.71 313.998L1431.34 333.358ZM1427.48 117.911V329.527L1447.98 309.024V138.413L1427.48 117.911V117.911ZM1470.08 114.08H1431.34L1450.71 133.44L1470.08 114.08V114.08ZM1473.94 130.769V117.911L1453.44 138.413V167.334L1454.05 165.271C1458.23 151.916 1464.66 142.521 1473.94 130.769V130.769ZM1478.89 133.237L1478.62 133.587C1469.51 145.082 1463.23 154.126 1459.25 166.892C1457.77 171.607 1456.59 176.857 1455.71 182.936C1459.69 172.565 1465.11 162.931 1471.74 154.66C1485.62 137.345 1504.81 125.924 1527.37 125.924C1549.95 125.924 1566.54 135.006 1577.66 151.474C1588.83 167.997 1594.3 191.944 1594.62 221.509H1615.13C1614.88 189.236 1608.89 158.492 1593.7 137.161C1580.96 119.275 1561.6 107.983 1533.49 107.983C1522.3 107.983 1512.06 110.635 1503.26 114.725C1492.85 119.569 1484.46 126.403 1478.89 133.237V133.237Z" fill="#323232"/>
<path d="M668.92 434.816L698.266 413.632L731.132 338.827L711.003 339.048L668.92 434.816ZM698.929 419.84L670.819 440.121H709.897L699.722 419.932C699.446 419.932 699.187 419.914 698.929 419.84V419.84ZM703.464 415.309L714.155 436.492L853.492 119.383L824.146 140.566L703.464 415.309V415.309ZM737.989 323.224L818.948 138.89L808.275 117.706L737.879 277.891L737.989 323.224V323.224ZM812.515 114.078L822.948 134.745L851.593 114.078H812.515V114.078ZM659.943 441.761L706.247 336.358L607.943 112.641C607.74 112.272 607.611 111.83 607.611 111.351C607.611 109.859 608.846 108.644 610.339 108.644H662.229C662.634 108.644 663.058 108.736 663.445 108.938C664.035 109.233 664.478 109.712 664.717 110.283L735.169 270.579L805.529 110.467C805.897 109.399 806.911 108.644 808.091 108.644H859.98C860.349 108.644 860.718 108.717 861.068 108.865C862.45 109.472 863.077 111.075 862.469 112.438L716.902 443.713C716.533 444.8 715.519 445.555 714.321 445.555H662.432C662.063 445.555 661.694 445.482 661.344 445.334C659.98 444.726 659.335 443.124 659.943 441.761V441.761ZM732.57 323.114L732.459 277.91L662.063 117.706L651.372 138.872L732.57 323.114ZM657.823 114.078H618.745L647.372 134.745L657.823 114.078ZM616.828 119.383L710.985 333.632L731.169 333.411L646.174 140.566L616.828 119.383V119.383Z" fill="#323232"/>
<path d="M1108.75 320.556C1108.75 359.423 1098.76 393.833 1077.57 417.816C1058.34 439.571 1029.97 452.686 991.63 452.686C972.902 452.686 954.948 449.223 938.966 442.15C923.741 435.408 910.321 425.369 899.759 411.903C899.372 411.424 899.151 410.835 899.151 410.209C899.151 409.582 899.353 409.011 899.704 408.551C906.045 400.354 927.077 382.67 935.851 374.399C936.294 373.957 936.902 373.662 937.602 373.625C938.598 373.552 939.519 374.067 940.036 374.86C945.252 382.154 952.736 389.043 962.542 393.833C970.893 397.904 980.939 400.464 992.773 400.464C1013.16 400.464 1026.52 393.52 1035.21 384.015C1049.1 368.818 1051.43 346.916 1051.43 336.066V322.969C1044.75 329.6 1036.92 334.979 1027.8 338.866C1017.09 343.434 1004.64 345.921 990.303 345.921C956.681 345.921 926.229 332.29 904.201 310.277C882.155 288.246 868.533 257.815 868.533 224.235C868.533 190.636 882.155 160.205 904.201 138.174C926.229 116.161 956.681 102.53 990.303 102.53C1004.63 102.53 1017.09 105.017 1027.8 109.585C1036.92 113.472 1044.75 118.851 1051.43 125.482V111.354C1051.43 109.862 1052.64 108.646 1054.16 108.646H1106.04C1107.54 108.646 1108.75 109.862 1108.75 111.354V320.556ZM1073.51 414.224C1093.77 391.309 1103.32 358.152 1103.32 320.556V117.911L1082.84 138.377L1082.82 320.556C1082.82 352.294 1075.7 380.073 1059.28 399.285C1044.57 416.49 1022.52 426.75 991.63 426.75C981.86 426.75 972.091 425.608 962.782 423.103C954.358 420.856 946.303 417.466 938.948 412.824L907.63 412.898C917.013 423.471 928.404 431.54 941.16 437.176C956.423 443.937 973.639 447.234 991.63 447.234C1028.29 447.234 1055.3 434.837 1073.51 414.224V414.224ZM935.39 382.301L908.699 407.482L936.865 407.409L935.39 382.301V382.301ZM960.165 398.714C952.46 394.956 946.063 389.983 940.957 384.53L942.377 408.569C949.086 412.732 956.46 415.79 964.183 417.872C972.994 420.229 982.303 421.316 991.63 421.316C1020.79 421.316 1041.47 411.774 1055.15 395.767C1070.65 377.623 1077.38 351.06 1077.38 320.556L1077.4 281.688C1076.35 284.857 1075.19 287.915 1073.9 290.88C1069.68 300.606 1064.05 309.282 1056.87 317.056V336.066C1056.87 347.671 1054.36 371.12 1039.21 387.662C1029.57 398.217 1014.91 405.898 992.773 405.898C980.054 405.898 969.197 403.135 960.165 398.714V398.714ZM915.39 226.943H897.418C898.118 251.516 908.367 273.694 924.589 289.886C941.4 306.704 964.644 317.093 990.303 317.093C1010.32 317.093 1028.64 310.977 1043.59 300.514C1058.95 289.793 1070.8 274.486 1077.4 256.526V226.943H1065.18C1064.29 246.395 1056.24 264.484 1043.04 277.673C1029.86 290.825 1011.61 299.133 990.303 299.133C969.602 299.133 950.856 290.751 937.289 277.194C924.33 264.244 916.091 246.542 915.39 226.943V226.943ZM891.962 226.943H874.008C874.708 257.963 887.593 285.999 908.036 306.427C929.086 327.464 958.174 340.468 990.303 340.468C1003.91 340.468 1015.63 338.147 1025.68 333.874C1036.2 329.398 1044.9 322.729 1051.96 314.366L1052.33 313.98C1059.37 306.482 1064.83 298.12 1068.92 288.725C1070.49 285.133 1071.85 281.394 1073.03 277.507C1066.12 288.301 1057.18 297.641 1046.71 304.954C1030.84 316.043 1011.46 322.527 990.303 322.527C963.132 322.527 938.542 311.53 920.736 293.735C903.538 276.549 892.681 253.008 891.962 226.943V226.943ZM874.008 221.509H891.962C892.681 195.443 903.538 171.92 920.736 154.716C938.542 136.921 963.132 125.924 990.303 125.924C1011.46 125.924 1030.84 132.408 1046.71 143.498C1057.18 150.811 1066.12 160.15 1073.03 170.944C1071.85 167.057 1070.49 163.318 1068.92 159.744C1064.81 150.295 1059.32 141.895 1052.24 134.379L1052.07 134.195C1044.99 125.777 1036.26 119.09 1025.66 114.577C1015.63 110.304 1003.91 107.983 990.303 107.983C958.174 107.983 929.086 120.988 908.036 142.024C887.593 162.471 874.708 190.488 874.008 221.509V221.509ZM897.418 221.509H915.39C916.091 201.909 924.33 184.225 937.289 171.257C950.856 157.7 969.602 149.318 990.303 149.318C1011.61 149.318 1029.88 157.626 1043.04 170.778C1056.24 183.967 1064.29 202.056 1065.18 221.509H1077.4L1077.42 191.962C1070.82 173.984 1058.95 158.658 1043.59 147.937C1028.64 137.474 1010.32 131.358 990.303 131.358C964.644 131.358 941.4 141.766 924.589 158.566C908.367 174.776 898.118 196.954 897.418 221.509V221.509ZM1059.81 224.419V224.032C1059.57 205.096 1051.96 187.394 1039.19 174.628C1027 162.452 1010.08 154.753 990.303 154.753C971.095 154.753 953.713 162.526 941.142 175.107C928.57 187.67 920.773 205.041 920.773 224.235C920.773 243.411 928.57 260.781 941.142 273.344C953.713 285.925 971.095 293.699 990.303 293.699C1010.08 293.699 1027 285.999 1039.19 273.823C1051.96 261.057 1059.57 243.355 1059.81 224.419V224.419ZM1056.87 131.395C1064.05 139.187 1069.68 147.845 1073.9 157.571C1075.21 160.555 1076.37 163.65 1077.42 166.836V138.45L1056.87 117.911V131.395ZM1099.46 114.08H1060.72L1080.09 133.44L1099.46 114.08Z" fill="#323232"/>
</svg>
