<svg width="496" height="213" viewBox="0 0 496 213" fill="none" xmlns="http://www.w3.org/2000/svg">
<g clip-path="url(#clip0)">
<path d="M273.723 157.513H278.807C278.871 152.582 279.68 147.884 281.655 144.55C283.438 141.54 286.144 139.638 290.075 139.638C291.314 139.638 292.759 139.839 294.226 140.372C294.843 140.591 295.465 140.874 296.082 141.225L294.062 135.428C293.088 135.246 292.11 135.155 291.14 135.155C287.378 135.155 283.762 136.541 280.818 139.2C277.842 141.882 275.543 145.864 274.436 151.027C274.011 153.011 273.764 155.177 273.723 157.513ZM278.802 158.863H273.719V179.187L278.802 184.259V158.863ZM279.977 135.725C277.714 138.58 276.146 140.824 275.159 143.989C274.99 144.527 274.834 145.093 274.702 145.695C276.009 142.621 277.801 140.112 279.913 138.206C283.118 135.319 287.049 133.809 291.14 133.809C292.26 133.809 293.394 133.923 294.532 134.151L301.646 131.807C300.507 131.145 299.291 130.635 298.075 130.251C296.206 129.668 294.34 129.403 292.727 129.403C290.03 129.403 287.716 130.023 285.764 130.99C283.319 132.199 281.417 133.946 280 135.697L279.977 135.725ZM273.87 143.592C274.907 140.281 276.503 137.955 278.802 135.05V131.866L273.719 136.938V144.103L273.87 143.592ZM297.956 143.319C297.879 143.442 297.76 143.542 297.614 143.592C297.476 143.638 297.339 143.638 297.211 143.602L297.175 143.592C297.124 143.574 297.074 143.551 297.028 143.52L296.951 143.46C295.936 142.612 294.843 142.023 293.769 141.631C292.471 141.161 291.186 140.988 290.075 140.988C286.692 140.988 284.356 142.63 282.816 145.234C280.887 148.486 280.151 153.23 280.151 158.188V185.882C280.151 186.256 279.849 186.557 279.479 186.557H266.606C266.235 186.557 265.934 186.256 265.934 185.882V130.242C265.934 129.868 266.235 129.567 266.606 129.567H279.479C279.849 129.567 280.151 129.868 280.151 130.242V133.499C281.504 132.099 283.163 130.776 285.166 129.786C287.296 128.733 289.806 128.058 292.727 128.058C294.459 128.058 296.466 128.34 298.478 128.97C300.21 129.513 301.956 130.315 303.534 131.419C303.671 131.497 303.785 131.629 303.84 131.793C303.904 131.985 303.872 132.19 303.776 132.35L297.956 143.319ZM295.428 135.273L297.522 141.28L301.819 133.166L295.428 135.273ZM272.366 179.187V136.938L267.282 131.866V184.259L272.366 179.187ZM268.238 130.913L273.042 135.711L277.847 130.913H268.238ZM273.042 180.414L268.238 185.212H277.847L273.042 180.414Z" fill="#323232"/>
<path d="M202.706 158.863H198.244C198.418 166.544 201.614 173.481 206.683 178.539C211.904 183.748 219.118 186.972 227.086 186.972C230.999 186.972 234.724 186.197 238.121 184.792C241.129 183.552 243.881 181.809 246.281 179.675L239.282 179.629C237.559 180.546 235.712 181.262 233.783 181.755C231.803 182.261 229.732 182.525 227.602 182.525C220.695 182.525 214.441 179.848 209.924 175.438C205.604 171.219 202.88 165.417 202.706 158.863ZM198.244 157.513H202.706C202.88 151.164 205.545 145.317 209.751 141.02C214.066 136.619 220.009 133.846 226.569 133.846C233.152 133.846 239.218 136.641 243.639 141.07C248 145.444 250.761 151.41 250.848 157.873L255.694 161.923C255.748 161.504 255.794 161.079 255.831 160.651C255.899 159.843 255.936 159.018 255.936 158.188C255.936 150.238 252.704 143.041 247.488 137.832C242.267 132.628 235.054 129.403 227.086 129.403C219.118 129.403 211.904 132.623 206.683 137.832C201.614 142.895 198.418 149.832 198.244 157.513ZM242.962 151.465C241.691 148.486 239.607 145.941 236.987 144.103C234.185 142.138 230.77 140.988 227.086 140.988C223.396 140.988 219.982 142.138 217.184 144.103C214.564 145.941 212.475 148.486 211.209 151.465H242.962ZM237.76 143.004C240.823 145.148 243.204 148.199 244.526 151.761L249.435 156.532C249.019 150.954 246.496 145.841 242.683 142.019C238.51 137.832 232.782 135.196 226.569 135.196C220.384 135.196 214.784 137.805 210.715 141.955C206.939 145.814 204.48 150.995 204.096 156.651L209.65 151.748C210.971 148.19 213.353 145.148 216.411 143.004C219.433 140.883 223.113 139.638 227.086 139.638C231.054 139.638 234.738 140.883 237.76 143.004ZM243.675 152.81H210.473L205.147 157.513H248.516L243.675 152.81ZM227.086 128.058C235.424 128.058 242.976 131.428 248.439 136.883C253.906 142.334 257.284 149.868 257.284 158.188C257.284 159.05 257.248 159.912 257.175 160.76C257.102 161.618 256.992 162.475 256.846 163.319C256.818 163.488 256.727 163.634 256.603 163.729L256.489 163.802C256.398 163.853 256.292 163.88 256.183 163.88C241.056 163.885 225.934 163.88 210.811 163.88C211.95 167.132 214.048 169.937 216.759 171.967C219.634 174.115 223.209 175.387 227.086 175.387C229.426 175.387 231.652 174.927 233.682 174.088C235.785 173.216 237.687 171.939 239.278 170.352C239.332 170.297 239.396 170.252 239.465 170.22L239.488 170.206C239.584 170.165 239.694 170.147 239.808 170.156C239.913 170.165 240.009 170.197 240.096 170.247C240.146 170.279 240.183 170.311 240.228 170.352L248.439 178.539C248.699 178.804 248.699 179.228 248.439 179.492C245.659 182.265 242.331 184.505 238.633 186.033C235.072 187.506 231.168 188.318 227.086 188.318C218.747 188.318 211.195 184.947 205.732 179.492C200.265 174.042 196.887 166.507 196.887 158.188C196.887 149.868 200.265 142.334 205.732 136.883C211.195 131.428 218.747 128.058 227.086 128.058ZM254.13 162.53H254.327L249.934 158.863H205.348L210.112 162.53H254.13ZM215.95 173.038C212.832 170.708 210.468 167.415 209.303 163.606L204.087 159.588C204.434 165.467 206.958 170.662 210.871 174.48C215.136 178.649 221.056 181.18 227.602 181.18C229.623 181.18 231.584 180.925 233.449 180.45C235.214 180.003 236.896 179.356 238.468 178.539L238.948 172.468C237.527 173.641 235.927 174.612 234.19 175.328C232 176.236 229.6 176.737 227.086 176.737C222.912 176.737 219.058 175.36 215.95 173.038ZM246.327 178.334L240.311 172.336L239.844 178.293L246.327 178.334Z" fill="#323232"/>
<path d="M177.023 157.513H181.48C181.307 151.433 178.76 145.941 174.742 141.928C170.568 137.768 164.808 135.196 158.445 135.196C153.476 135.196 148.936 136.71 145.224 139.296C141.426 141.951 138.486 145.732 136.85 150.174V157.513H139.876C140.091 152.696 142.093 148.222 145.366 144.956C148.63 141.695 153.16 139.638 158.445 139.638C163.579 139.638 168.228 141.718 171.588 145.07C174.806 148.281 176.85 152.66 177.023 157.513ZM182.834 157.513H187.286C187.108 149.832 183.917 142.895 178.843 137.832C173.627 132.623 166.413 129.403 158.445 129.403C155.071 129.403 152.159 129.982 149.672 131.036C147.048 132.153 144.882 133.809 143.126 135.893L143.085 135.944C141.33 137.805 139.963 139.884 138.943 142.22C138.559 143.109 138.221 144.03 137.928 144.997C139.638 142.325 141.855 140.012 144.456 138.197C148.392 135.451 153.197 133.846 158.445 133.846C165.179 133.846 171.277 136.573 175.693 140.979C179.963 145.234 182.655 151.059 182.834 157.513ZM187.286 158.863H182.834C182.655 165.312 179.963 171.141 175.693 175.401C171.282 179.802 165.179 182.53 158.445 182.53C153.197 182.53 148.392 180.924 144.456 178.179C141.855 176.363 139.638 174.056 137.928 171.378C138.221 172.345 138.559 173.271 138.943 174.156C139.958 176.482 141.316 178.557 143.062 180.409L143.154 180.509C144.904 182.58 147.062 184.227 149.672 185.335C152.159 186.393 155.071 186.972 158.445 186.972C166.413 186.972 173.627 183.748 178.843 178.539C183.917 173.481 187.108 166.544 187.286 158.863ZM181.48 158.863H177.023C176.85 163.716 174.806 168.094 171.588 171.301C168.228 174.658 163.579 176.737 158.445 176.737C153.16 176.737 148.63 174.676 145.366 171.419C142.093 168.154 140.091 163.679 139.876 158.863H136.85V166.201C138.486 170.644 141.426 174.425 145.224 177.08C148.936 179.67 153.476 181.18 158.445 181.18C164.808 181.18 170.568 178.607 174.742 174.448C178.76 170.434 181.307 164.943 181.48 158.863ZM141.202 158.138V158.238C141.266 162.927 143.149 167.305 146.322 170.471C149.343 173.485 153.54 175.387 158.445 175.387C163.204 175.387 167.519 173.463 170.637 170.352C173.755 167.241 175.684 162.936 175.684 158.188C175.684 153.435 173.755 149.134 170.637 146.024C167.519 142.913 163.204 140.988 158.445 140.988C153.54 140.988 149.343 142.89 146.322 145.905C143.149 149.066 141.266 153.449 141.202 158.138ZM137.714 141.681C138.76 139.278 140.155 137.13 141.933 135.2V131.866L136.85 136.938V143.944C137.106 143.168 137.394 142.411 137.714 141.681ZM137.714 174.694C137.394 173.964 137.106 173.212 136.85 172.432V205.622L141.933 210.694V181.175C140.155 179.246 138.76 177.098 137.714 174.694ZM140.982 130.913H131.368L136.173 135.711L140.982 130.913ZM129.741 129.567H142.61C142.98 129.567 143.286 129.868 143.286 130.242V133.741C144.941 132.099 146.884 130.762 149.147 129.8C151.803 128.673 154.888 128.058 158.445 128.058C166.783 128.058 174.335 131.428 179.798 136.883C185.266 142.334 188.644 149.868 188.644 158.188C188.644 166.507 185.266 174.042 179.798 179.492C174.335 184.947 166.783 188.318 158.445 188.318C154.888 188.318 151.803 187.702 149.147 186.571C146.884 185.613 144.941 184.277 143.286 182.635V212.318C143.286 212.692 142.98 212.993 142.61 212.993H129.741C129.366 212.993 129.064 212.692 129.064 212.318V130.242C129.064 129.868 129.366 129.567 129.741 129.567ZM130.418 131.866V210.694L135.501 205.622V136.938L130.418 131.866ZM131.368 211.643H140.982L136.173 206.849L131.368 211.643Z" fill="#323232"/>
<path d="M105.28 158.238V158.138C105.216 153.449 103.328 149.066 100.16 145.905C97.1385 142.89 92.9419 140.988 88.0368 140.988C83.2733 140.988 78.9625 142.913 75.8448 146.024C72.727 149.134 70.7979 153.435 70.7979 158.188C70.7979 162.936 72.727 167.241 75.8448 170.352C78.9625 173.463 83.2733 175.387 88.0368 175.387C92.9419 175.387 97.1385 173.485 100.16 170.471C103.328 167.305 105.216 162.927 105.28 158.238ZM106.606 157.513H109.632V150.169C107.991 145.732 105.056 141.951 101.257 139.296C97.5453 136.71 93.0013 135.196 88.0368 135.196C81.6733 135.196 75.9133 137.768 71.7396 141.928C67.7213 145.941 65.175 151.433 65.0013 157.513H69.4585C69.6322 152.66 71.6756 148.281 74.8893 145.07C78.2539 141.718 82.903 139.638 88.0368 139.638C93.3213 139.638 97.8516 141.695 101.116 144.956C104.389 148.222 106.386 152.696 106.606 157.513ZM109.632 158.863H106.606C106.386 163.679 104.389 168.154 101.116 171.419C97.8516 174.676 93.3213 176.737 88.0368 176.737C82.903 176.737 78.2539 174.658 74.8939 171.301C71.6756 168.094 69.6322 163.716 69.4585 158.863H65.0013C65.175 164.943 67.7213 170.434 71.7396 174.448C75.9133 178.607 81.6733 181.18 88.0368 181.18C93.0013 181.18 97.5453 179.67 101.257 177.08C105.056 174.43 107.991 170.644 109.632 166.206V158.863ZM110.981 158.151C111.177 165.043 110.981 172.259 110.981 179.187L116.064 184.259V131.866L110.981 136.938V158.151ZM63.6482 158.863H59.1956C59.3693 166.544 62.5647 173.481 67.6345 178.539C72.855 183.748 80.0688 186.972 88.0368 186.972C91.4105 186.972 94.3225 186.393 96.8093 185.335C99.4196 184.227 101.577 182.58 103.328 180.509L103.429 180.405C105.17 178.553 106.524 176.482 107.538 174.156C107.922 173.271 108.261 172.345 108.553 171.378C106.844 174.056 104.626 176.363 102.025 178.179C98.0939 180.925 93.2848 182.53 88.0368 182.53C81.303 182.53 75.2002 179.802 70.7888 175.401C66.519 171.141 63.8265 165.312 63.6482 158.863ZM59.1956 157.513H63.6482C63.8265 151.059 66.519 145.234 70.7888 140.979C75.2048 136.573 81.303 133.846 88.0368 133.846C93.2848 133.846 98.0939 135.451 102.025 138.197C104.626 140.012 106.844 142.325 108.553 144.997C108.261 144.03 107.922 143.109 107.538 142.22C106.519 139.884 105.157 137.814 103.41 135.953L103.356 135.893C101.6 133.809 99.4333 132.153 96.8093 131.036C94.3225 129.982 91.4105 129.403 88.0368 129.403C80.0688 129.403 72.855 132.623 67.6345 137.832C62.5647 142.895 59.3693 149.832 59.1956 157.513ZM103.872 129.567H116.741C117.111 129.567 117.417 129.868 117.417 130.242V185.882C117.417 186.256 117.111 186.557 116.741 186.557H103.872C103.497 186.557 103.196 186.256 103.196 185.882V182.635C101.541 184.277 99.5979 185.613 97.335 186.571C94.679 187.702 91.5933 188.318 88.0368 188.318C79.6985 188.318 72.1465 184.947 66.6836 179.492C61.2162 174.042 57.8379 166.507 57.8379 158.188C57.8379 149.868 61.2162 142.334 66.6836 136.883C72.1465 131.428 79.6985 128.058 88.0368 128.058C91.5933 128.058 94.679 128.673 97.335 129.8C99.5979 130.762 101.541 132.099 103.196 133.741V130.242C103.196 129.868 103.497 129.567 103.872 129.567ZM115.113 130.913H105.5L110.304 135.711L115.113 130.913ZM105.5 185.212H115.113L110.304 180.414L105.5 185.212ZM104.549 181.175V184.259L109.632 179.187V172.432C109.376 173.212 109.088 173.964 108.768 174.694C107.721 177.098 106.327 179.246 104.549 181.175ZM104.549 131.866V135.2C106.327 137.13 107.721 139.278 108.768 141.681C109.088 142.411 109.376 143.164 109.632 143.944V136.938L104.549 131.866Z" fill="#323232"/>
<path d="M41.5269 129.587H46.9943C46.8206 124.273 44.6217 119.735 41.1703 116.455C37.4263 112.898 32.2103 110.813 26.5051 110.813H9.12L14.5783 116.264H26.5051C30.7154 116.264 34.528 117.732 37.2617 120.268C39.7623 122.59 41.3577 125.801 41.5269 129.587ZM48.3429 129.587H53.8103C53.632 122.608 50.7246 116.305 46.1166 111.703C41.3577 106.955 34.7794 104.017 27.5154 104.017H2.304L7.76686 109.468H26.5051C32.5577 109.468 38.1074 111.689 42.0983 115.484C45.8103 119.009 48.1737 123.885 48.3429 129.587ZM53.8103 130.937H48.3429C48.1691 136.683 45.76 141.878 41.952 145.678C37.9977 149.623 32.5349 152.063 26.5051 152.063H9.11543L14.5783 157.514H27.5154C34.7063 157.514 41.2251 154.389 45.9703 149.477C50.6651 144.615 53.632 138.006 53.8103 130.937ZM46.9943 130.937H41.5269C41.3577 134.809 39.712 138.303 37.1383 140.87C34.4183 143.589 30.656 145.267 26.5051 145.267H14.5783L9.11543 150.722L26.5051 150.718C32.1646 150.718 37.2891 148.428 41.0011 144.725C44.5623 141.172 46.8206 136.314 46.9943 130.937ZM55.168 130.262C55.168 137.942 52.0183 145.149 46.944 150.408C41.9474 155.575 35.0857 158.864 27.5154 158.864H14.976V185.883C14.976 186.257 14.6743 186.558 14.304 186.558H0.676571C0.301714 186.558 0 186.257 0 185.883V103.342C0 102.973 0.301714 102.672 0.676571 102.672H27.5154C35.1497 102.672 42.0663 105.76 47.0674 110.754C52.0731 115.744 55.168 122.645 55.168 130.262ZM8.16 111.762V149.769L13.6274 144.314V117.217L8.16 111.762ZM8.16 153.012V178.805L13.6274 184.26V158.467L8.16 153.012ZM6.816 178.805V110.421L1.34857 104.966V184.26L6.816 178.805ZM7.488 180.041L2.304 185.213H12.672L7.488 180.041ZM14.976 117.614V143.922H26.5051C30.2857 143.922 33.7097 142.389 36.1829 139.922C38.6606 137.45 40.192 134.034 40.192 130.262C40.192 126.576 38.7246 123.461 36.3429 121.253C33.856 118.95 30.3726 117.614 26.5051 117.614H14.976Z" fill="#323232"/>
<path d="M41.5269 26.926H46.9943C46.8206 21.6124 44.6217 17.0742 41.1703 13.7948C37.4263 10.2372 32.2103 8.15283 26.5051 8.15283H9.12L14.5783 13.6033H26.5051C30.7154 13.6033 34.528 15.0719 37.2617 17.6078C39.7623 19.9294 41.3577 23.1358 41.5269 26.926ZM48.3429 26.926H53.8103C53.632 19.9476 50.7246 13.6443 46.1166 9.04223C41.3577 4.2942 34.7794 1.35234 27.5154 1.35234H2.304L7.76686 6.80733H26.5051C32.5577 6.80733 38.1074 9.02855 42.0983 12.8188C45.8103 16.3444 48.1737 21.2202 48.3429 26.926ZM53.8103 28.2715H48.3429C48.1691 34.023 45.76 39.218 41.952 43.0128C37.9977 46.958 32.5349 49.4028 26.5051 49.4028H9.11543L14.5783 54.8532H27.5154C34.7063 54.8532 41.2251 51.7289 45.9703 46.8121C50.6651 41.9546 53.632 35.3457 53.8103 28.2715ZM46.9943 28.2715H41.5269C41.3577 32.1484 39.712 35.6421 37.1383 38.21C34.4183 40.9238 30.656 42.6023 26.5051 42.6023H14.5783L9.12 48.0527H26.5051C32.1646 48.0527 37.2891 45.7631 41.0011 42.0641C44.5623 38.5065 46.8206 33.6535 46.9943 28.2715ZM55.168 27.5965C55.168 35.2773 52.0183 42.4882 46.944 47.7425C41.9474 52.9148 35.0857 56.1987 27.5154 56.1987H14.976V83.2228C14.976 83.5922 14.6743 83.8932 14.304 83.8932H0.676571C0.301714 83.8932 0 83.5922 0 83.2228V0.681868C0 0.307864 0.301714 0.00683594 0.676571 0.00683594H27.5154C35.1497 0.00683594 42.0663 3.09465 47.0674 8.08898C52.0731 13.0833 55.168 19.9796 55.168 27.5965ZM8.16 9.10152V47.1086L13.6274 41.6536V14.552L8.16 9.10152ZM8.16 50.3515V76.1441L13.6274 81.5945V55.8064L8.16 50.3515ZM6.816 76.1441V7.76058L1.34857 2.30559V81.5945L6.816 76.1441ZM7.488 77.3755L2.304 82.5477H12.672L7.488 77.3755ZM14.976 14.9488V41.2568H26.5051C30.2857 41.2568 33.7097 39.7288 36.1829 37.2567C38.6606 34.7892 40.192 31.373 40.192 27.6011C40.192 23.9112 38.7246 20.8006 36.3429 18.5885C33.856 16.2851 30.3726 14.9488 26.5051 14.9488H14.976Z" fill="#323232"/>
<path d="M135.908 7.74234V76.1578L140.992 81.5306V2.37401L135.908 7.74234ZM134.56 76.1578V7.74234L129.476 2.37401V81.5306L134.56 76.1578ZM135.364 77.5397L135.232 77.5534L135.104 77.5397L130.363 82.5478H140.105L135.364 77.5397ZM130.363 1.35234L135.232 6.49718L140.105 1.35234H130.363ZM128.123 83.2182V0.681868C128.123 0.307864 128.425 0.00683594 128.8 0.00683594H141.668C142.043 0.00683594 142.345 0.307864 142.345 0.681868V83.2182C142.345 83.5922 142.043 83.8933 141.668 83.8933H128.8C128.425 83.8933 128.123 83.5922 128.123 83.2182Z" fill="#323232"/>
<path d="M88.0367 36.9786C93.1705 36.9786 97.815 39.0538 101.18 42.4107C104.398 45.6172 106.441 50.0003 106.615 54.8532H111.068C110.894 48.7688 108.352 43.2773 104.329 39.2682C100.16 35.1085 94.4002 32.5361 88.0367 32.5361C81.6733 32.5361 75.9087 35.1085 71.7396 39.2682C67.7213 43.2773 65.175 48.7688 65.0013 54.8532H69.4585C69.6322 50.0003 71.6756 45.6172 74.8893 42.4107C78.2539 39.0538 82.903 36.9786 88.0367 36.9786ZM100.229 43.364C97.1065 40.2488 92.7956 38.3241 88.0367 38.3241C83.2733 38.3241 78.9625 40.2488 75.8447 43.364C72.727 46.4746 70.7933 50.7757 70.7933 55.5237C70.7933 60.2763 72.727 64.5773 75.8447 67.688C78.9625 70.8031 83.2733 72.7279 88.0367 72.7279C92.7956 72.7279 97.1065 70.8031 100.229 67.688C103.346 64.5773 105.276 60.2763 105.276 55.5237C105.276 50.7757 103.346 46.4746 100.229 43.364ZM106.615 56.1987C106.441 61.0517 104.398 65.4348 101.18 68.6412C97.815 71.9981 93.1705 74.0734 88.0367 74.0734C82.903 74.0734 78.2539 71.9981 74.8893 68.6412C71.6756 65.4348 69.6322 61.0517 69.4585 56.1987H65.0013C65.175 62.2831 67.7167 67.7701 71.7396 71.7838C75.9087 75.9434 81.6733 78.5158 88.0367 78.5158C94.4002 78.5158 100.16 75.9434 104.329 71.7838C108.352 67.7701 110.894 62.2831 111.068 56.1987H106.615ZM88.0367 25.3936C96.375 25.3936 103.927 28.7687 109.39 34.2191C114.853 39.6741 118.236 47.2044 118.236 55.5237C118.236 63.843 114.853 71.3778 109.39 76.8328C103.927 82.2833 96.375 85.6584 88.0367 85.6584C79.6985 85.6584 72.1465 82.2833 66.6836 76.8328C61.2162 71.3778 57.8379 63.8476 57.8379 55.5237C57.8379 47.2044 61.2162 39.6741 66.6836 34.2191C72.1465 28.7687 79.6985 25.3936 88.0367 25.3936ZM108.434 35.1724C103.214 29.9637 96.0047 26.7436 88.0367 26.7436C80.0687 26.7436 72.855 29.9637 67.6345 35.1724C62.5647 40.2306 59.3693 47.1725 59.1956 54.8532H63.6482C63.8265 48.3994 66.519 42.5704 70.7888 38.3149C75.2002 33.9136 81.2985 31.1861 88.0367 31.1861C94.7705 31.1861 100.869 33.9136 105.285 38.3149C109.55 42.5704 112.242 48.3994 112.421 54.8532H116.878C116.7 47.1725 113.509 40.2306 108.434 35.1724ZM108.434 75.8796C113.509 70.8168 116.7 63.8795 116.878 56.1987H112.421C112.242 62.6526 109.55 68.477 105.285 72.737C100.869 77.1384 94.7705 79.8659 88.0367 79.8659C81.2985 79.8659 75.2002 77.1384 70.7842 72.737C66.519 68.477 63.8265 62.6526 63.6482 56.1987H59.1956C59.3693 63.8795 62.5647 70.8214 67.6345 75.8796C72.855 81.0883 80.0687 84.3083 88.0367 84.3083C96.0047 84.3083 103.218 81.0883 108.434 75.8796Z" fill="#323232"/>
<path d="M313.82 36.9786C318.954 36.9786 323.603 39.0538 326.967 42.4107C330.181 45.6172 332.225 50.0003 332.398 54.8532H336.855C336.677 48.7688 334.135 43.2773 330.117 39.2682C325.948 35.1085 320.183 32.5361 313.82 32.5361C307.457 32.5361 301.692 35.1085 297.523 39.2682C293.505 43.2773 290.963 48.7688 290.785 54.8532H295.242C295.415 50.0003 297.459 45.6172 300.673 42.4107C304.037 39.0538 308.686 36.9786 313.82 36.9786ZM326.012 43.364C322.894 40.2488 318.583 38.3241 313.82 38.3241C309.057 38.3241 304.746 40.2488 301.628 43.364C298.51 46.4746 296.581 50.7757 296.581 55.5237C296.581 60.2763 298.51 64.5773 301.628 67.688C304.746 70.8031 309.057 72.7279 313.82 72.7279C318.583 72.7279 322.894 70.8031 326.012 67.688C329.13 64.5773 331.059 60.2763 331.059 55.5237C331.059 50.7757 329.13 46.4746 326.012 43.364ZM332.398 56.1987C332.225 61.0517 330.181 65.4348 326.967 68.6412C323.603 71.9981 318.954 74.0734 313.82 74.0734C308.686 74.0734 304.037 71.9981 300.673 68.6412C297.459 65.4348 295.415 61.0517 295.242 56.1987H290.785C290.963 62.2831 293.505 67.7701 297.523 71.7838C301.692 75.9434 307.457 78.5158 313.82 78.5158C320.183 78.5158 325.948 75.9434 330.117 71.7838C334.135 67.7701 336.677 62.2831 336.855 56.1987H332.398ZM313.82 25.3936C322.158 25.3936 329.71 28.7687 335.173 34.2191C340.641 39.6741 344.019 47.2044 344.019 55.5237C344.019 63.843 340.641 71.3778 335.173 76.8328C329.71 82.2833 322.158 85.6584 313.82 85.6584C305.482 85.6584 297.93 82.2833 292.467 76.8328C286.999 71.3778 283.621 63.8476 283.621 55.5237C283.621 47.2044 286.999 39.6741 292.467 34.2191C297.93 28.7687 305.482 25.3936 313.82 25.3936ZM334.222 35.1724C329.002 29.9637 321.788 26.7436 313.82 26.7436C305.852 26.7436 298.638 29.9637 293.422 35.1724C288.348 40.2306 285.157 47.1725 284.979 54.8532H289.436C289.61 48.3994 292.302 42.5704 296.572 38.3149C300.983 33.9136 307.086 31.1861 313.82 31.1861C320.554 31.1861 326.657 33.9136 331.068 38.3149C335.338 42.5704 338.03 48.3994 338.204 54.8532H342.661C342.483 47.1725 339.292 40.2306 334.222 35.1724ZM334.222 75.8796C339.292 70.8168 342.483 63.8795 342.661 56.1987H338.204C338.03 62.6526 335.338 68.477 331.068 72.737C326.657 77.1384 320.554 79.8659 313.82 79.8659C307.086 79.8659 300.983 77.1384 296.572 72.737C292.302 68.477 289.61 62.6526 289.436 56.1987H284.979C285.157 63.8795 288.348 70.8214 293.422 75.8796C298.638 81.0883 305.852 84.3083 313.82 84.3083C321.788 84.3083 329.002 81.0883 334.222 75.8796Z" fill="#323232"/>
<path d="M489.564 7.74234V76.1578L494.652 81.5306V2.37401L489.564 7.74234ZM488.215 76.1578V7.74234L483.132 2.37401V81.5306L488.215 76.1578ZM489.02 77.5397L488.892 77.5534L488.759 77.5397L484.019 82.5478H493.76L489.02 77.5397ZM484.019 1.35234L488.892 6.49718L493.76 1.35234H484.019ZM481.783 83.2182V0.681868C481.783 0.307864 482.085 0.00683594 482.455 0.00683594H495.324C495.699 0.00683594 496 0.307864 496 0.681868V83.2182C496 83.5922 495.699 83.8933 495.324 83.8933H482.455C482.085 83.8933 481.783 83.5922 481.783 83.2182Z" fill="#323232"/>
<path d="M457.993 55.5739V55.4781C457.929 50.7894 456.046 46.4062 452.878 43.2454C449.856 40.2306 445.659 38.3241 440.75 38.3241C435.991 38.3241 431.68 40.2488 428.558 43.364C425.44 46.4746 423.511 50.7757 423.511 55.5283C423.511 60.2763 425.44 64.5773 428.558 67.688C431.68 70.8031 435.991 72.7279 440.75 72.7279C445.655 72.7279 449.856 70.8214 452.878 67.8065C456.046 64.6458 457.929 60.2626 457.993 55.5739ZM459.319 54.8532H462.345V47.51C460.708 43.0675 457.769 39.2864 453.97 36.6365C450.258 34.0458 445.719 32.5316 440.75 32.5316C434.386 32.5316 428.626 35.1085 424.457 39.2682C420.434 43.2819 417.892 48.7734 417.714 54.8532H422.171C422.345 50.0003 424.388 45.6217 427.607 42.4107C430.971 39.0538 435.616 36.9786 440.75 36.9786C446.039 36.9786 450.564 39.0356 453.828 42.2922C457.102 45.5579 459.104 50.0368 459.319 54.8532ZM462.345 56.1987H459.319C459.104 61.0152 457.102 65.4941 453.828 68.7598C450.564 72.0164 446.034 74.0734 440.75 74.0734C435.616 74.0734 430.971 71.9981 427.607 68.6412C424.388 65.4348 422.345 61.0517 422.171 56.1987H417.714C417.892 62.2831 420.434 67.7746 424.457 71.7838C428.626 75.948 434.386 78.5204 440.75 78.5204C445.719 78.5204 450.258 77.0061 453.97 74.4155C457.769 71.7655 460.708 67.9844 462.345 63.5465V56.1987ZM463.694 55.4872C463.895 62.3789 463.694 69.5945 463.694 76.5227L468.782 81.5945V29.202L463.694 34.2784V55.4872ZM416.366 56.1987H411.908C412.087 63.8795 415.278 70.8214 420.352 75.8796C425.572 81.0883 432.782 84.3083 440.75 84.3083C444.123 84.3083 447.035 83.7337 449.522 82.6755C452.132 81.5672 454.295 79.9161 456.046 77.8454L456.142 77.7405C457.883 75.8887 459.236 73.818 460.251 71.4964C460.64 70.607 460.974 69.6857 461.266 68.7188C459.556 71.3915 457.339 73.704 454.743 75.5147C450.807 78.2604 445.998 79.8659 440.75 79.8659C434.016 79.8659 427.918 77.143 423.502 72.737C419.236 68.4816 416.539 62.6526 416.366 56.1987ZM411.908 54.8532H416.366C416.539 48.3994 419.236 42.5749 423.502 38.3149C427.918 33.909 434.016 31.1861 440.75 31.1861C445.998 31.1861 450.807 32.7915 454.743 35.5373C457.339 37.348 459.556 39.6604 461.266 42.3332C460.974 41.3708 460.64 40.4449 460.251 39.5601C459.232 37.2249 457.874 35.1496 456.123 33.2933L456.069 33.234C454.313 31.1496 452.146 29.4939 449.522 28.3765C447.035 27.3183 444.123 26.7436 440.75 26.7436C432.782 26.7436 425.572 29.9637 420.352 35.1724C415.278 40.2351 412.087 47.1725 411.908 54.8532ZM456.585 26.9078H469.454C469.829 26.9078 470.13 27.2088 470.13 27.5783V83.2228C470.13 83.5923 469.829 83.8933 469.454 83.8933H456.585C456.215 83.8933 455.913 83.5923 455.913 83.2228V79.9754C454.258 81.6173 452.311 82.9492 450.048 83.9115C447.392 85.0427 444.306 85.6584 440.75 85.6584C432.411 85.6584 424.864 82.2833 419.396 76.8328C413.934 71.3778 410.551 63.843 410.551 55.5283C410.551 47.209 413.934 39.6741 419.396 34.2191C424.864 28.7687 432.411 25.3936 440.75 25.3936C444.306 25.3936 447.392 26.0093 450.048 27.1404C452.311 28.1028 454.258 29.4346 455.913 31.0766V27.5783C455.913 27.2088 456.215 26.9078 456.585 26.9078ZM467.826 28.2533H458.217L463.022 33.047L467.826 28.2533ZM458.217 82.5478H467.826L463.022 77.7542L458.217 82.5478ZM457.262 78.5113V81.5945L462.345 76.5227V69.7724C462.089 70.5477 461.801 71.3003 461.486 72.0301C460.434 74.4383 459.044 76.5865 457.262 78.5113ZM457.262 29.202V32.5407C459.044 34.4654 460.434 36.6137 461.486 39.0219C461.801 39.7517 462.089 40.5042 462.345 41.2796V34.2784L457.262 29.202Z" fill="#323232"/>
<path d="M401.907 55.4006V83.2228C401.907 83.5923 401.601 83.8933 401.23 83.8933H388.362C387.987 83.8933 387.685 83.5923 387.685 83.2228V55.5283C387.685 50.2831 386.926 45.6673 385.07 42.5339C383.511 39.9067 381.148 38.3241 377.761 38.3241C374.327 38.3241 371.644 39.8748 369.815 42.7072C367.9 45.6764 366.885 50.0459 366.885 55.5283V83.2228C366.885 83.5923 366.583 83.8933 366.213 83.8933H353.34C352.97 83.8933 352.668 83.5923 352.668 83.2228V27.5783C352.668 27.2088 352.97 26.9078 353.34 26.9078H366.213C366.583 26.9078 366.885 27.2088 366.885 27.5783V30.8759C368.293 29.4894 370.113 28.1803 372.243 27.1906C374.588 26.1005 377.322 25.3936 380.307 25.3936C387.767 25.3936 392.924 28.413 396.334 33.1929C400.371 38.8486 401.907 46.9627 401.907 55.4006ZM400.554 81.5945V56.1987H395.466V76.5227L400.554 81.5945ZM389.989 82.5478H399.603L394.794 77.7542L389.989 82.5478ZM389.034 56.1987V81.5991L394.122 76.5227V56.1987H389.034ZM386.227 41.8497C388.138 45.0698 388.965 49.6628 389.029 54.8532H394.117C394.039 47.8019 392.755 42.128 390.145 38.2648C387.649 34.5703 383.9 32.5316 378.789 32.5316C373.642 32.5316 369.235 35.1633 366.039 39.1405C362.647 43.364 360.609 49.1018 360.462 54.8532H365.541C365.623 49.4302 366.702 45.0425 368.682 41.982C370.771 38.7482 373.834 36.9786 377.761 36.9786C381.687 36.9786 384.426 38.8075 386.227 41.8497ZM365.537 81.5945V56.1987H360.453V76.5227L365.537 81.5945ZM354.972 82.5478H364.581L359.777 77.7542L354.972 82.5478ZM354.017 29.202V81.5991L359.1 76.5227V34.2784L354.017 29.202ZM364.581 28.2533H354.972L359.777 33.047L364.581 28.2533ZM365.537 32.3856V29.202L360.453 34.2784V41.4392L360.604 40.9284C361.642 37.6217 363.237 35.2955 365.537 32.3856ZM366.766 32.9968L366.698 33.0834C364.439 35.9295 362.881 38.169 361.893 41.3298C361.527 42.4974 361.235 43.7973 361.015 45.3024C362.003 42.7346 363.347 40.3492 364.993 38.3013C368.435 34.0139 373.194 31.1861 378.789 31.1861C384.389 31.1861 388.503 33.4346 391.26 37.5122C394.03 41.6034 395.388 47.5328 395.466 54.8532H400.554C400.49 46.8623 399.004 39.25 395.237 33.9683C392.078 29.5395 387.278 26.7436 380.307 26.7436C377.532 26.7436 374.99 27.4004 372.81 28.413C370.227 29.6125 368.147 31.3046 366.766 32.9968Z" fill="#323232"/>
<path d="M165.892 107.67L173.17 102.425L181.321 83.9028L176.329 83.9575L165.892 107.67ZM173.334 103.962L166.363 108.984H176.054L173.531 103.985C173.462 103.985 173.398 103.98 173.334 103.962ZM174.459 102.84L177.11 108.085L211.666 29.5673L204.388 34.8125L174.459 102.84ZM183.021 80.0396L203.099 34.3974L200.452 29.1522L182.994 68.8149L183.021 80.0396ZM201.504 28.2537L204.091 33.3712L211.195 28.2537H201.504ZM163.666 109.39L175.149 83.2916L150.77 27.8979C150.719 27.8067 150.688 27.6973 150.688 27.5787C150.688 27.2092 150.994 26.9082 151.364 26.9082H164.233C164.333 26.9082 164.438 26.931 164.534 26.9812C164.681 27.0542 164.79 27.1727 164.85 27.3141L182.322 67.0042L199.771 27.3597C199.862 27.0952 200.114 26.9082 200.406 26.9082H213.275C213.366 26.9082 213.458 26.9264 213.545 26.9629C213.888 27.1134 214.043 27.5103 213.892 27.8478L177.792 109.873C177.7 110.142 177.449 110.329 177.152 110.329H164.283C164.191 110.329 164.1 110.311 164.013 110.275C163.675 110.124 163.515 109.727 163.666 109.39ZM181.677 80.0123L181.65 68.8195L164.192 29.1522L161.54 34.3928L181.677 80.0123ZM163.14 28.2537H153.449L160.548 33.3712L163.14 28.2537ZM152.973 29.5673L176.324 82.6166L181.33 82.5619L160.251 34.8125L152.973 29.5673Z" fill="#323232"/>
<path d="M274.971 79.3779C274.971 89.0017 272.494 97.5217 267.236 103.46C262.468 108.847 255.433 112.094 245.924 112.094C241.28 112.094 236.827 111.237 232.864 109.485C229.088 107.816 225.76 105.33 223.14 101.996C223.044 101.877 222.99 101.731 222.99 101.576C222.99 101.421 223.04 101.28 223.127 101.166C224.699 99.1363 229.915 94.7577 232.091 92.7098C232.201 92.6003 232.352 92.5273 232.526 92.5182C232.772 92.5 233.001 92.6277 233.129 92.8238C234.423 94.63 236.279 96.3358 238.711 97.5217C240.782 98.5296 243.273 99.1636 246.208 99.1636C251.264 99.1636 254.578 97.4441 256.731 95.0906C260.178 91.3278 260.754 85.9047 260.754 83.2183V79.9754C259.099 81.6173 257.156 82.9492 254.894 83.9115C252.238 85.0427 249.152 85.6584 245.595 85.6584C237.257 85.6584 229.705 82.2833 224.242 76.8328C218.775 71.3778 215.396 63.843 215.396 55.5283C215.396 47.209 218.775 39.6741 224.242 34.2191C229.705 28.7687 237.257 25.3936 245.595 25.3936C249.147 25.3936 252.238 26.0093 254.894 27.1404C257.156 28.1028 259.099 29.4346 260.754 31.0766V27.5783C260.754 27.2088 261.056 26.9078 261.431 26.9078H274.299C274.67 26.9078 274.971 27.2088 274.971 27.5783V79.3779ZM266.231 102.571C271.255 96.8968 273.623 88.6869 273.623 79.3779V29.202L268.544 34.2693L268.539 79.3779C268.539 87.2365 266.775 94.1146 262.702 98.8717C259.054 103.132 253.586 105.672 245.924 105.672C243.502 105.672 241.079 105.389 238.77 104.769C236.681 104.213 234.683 103.373 232.859 102.224L225.092 102.242C227.419 104.86 230.244 106.858 233.408 108.254C237.193 109.928 241.463 110.744 245.924 110.744C255.017 110.744 261.714 107.674 266.231 102.571ZM231.977 94.6664L225.358 100.901L232.343 100.883L231.977 94.6664ZM238.121 98.7303C236.21 97.7999 234.624 96.5684 233.358 95.2183L233.71 101.17C235.374 102.201 237.202 102.958 239.118 103.474C241.303 104.058 243.611 104.327 245.924 104.327C253.156 104.327 258.286 101.964 261.678 98.0006C265.522 93.5079 267.191 86.9309 267.191 79.3779L267.195 69.7541C266.935 70.5386 266.647 71.2957 266.327 72.0301C265.28 74.4383 263.886 76.5865 262.103 78.5113V83.2183C262.103 86.0917 261.481 91.8979 257.723 95.9937C255.332 98.6072 251.698 100.509 246.208 100.509C243.054 100.509 240.361 99.825 238.121 98.7303ZM227.017 56.1987H222.56C222.734 62.2831 225.275 67.7746 229.298 71.7838C233.467 75.948 239.232 78.5204 245.595 78.5204C250.56 78.5204 255.104 77.0061 258.811 74.4155C262.619 71.761 265.559 67.9707 267.195 63.5237V56.1987H264.164C263.945 61.0152 261.947 65.4941 258.674 68.7598C255.406 72.0164 250.88 74.0734 245.595 74.0734C240.462 74.0734 235.812 71.9981 232.448 68.6412C229.234 65.4348 227.191 61.0517 227.017 56.1987ZM221.207 56.1987H216.754C216.928 63.8795 220.123 70.8214 225.193 75.8796C230.414 81.0883 237.627 84.3084 245.595 84.3084C248.969 84.3084 251.876 83.7337 254.368 82.6755C256.978 81.5672 259.136 79.9161 260.887 77.8454L260.978 77.7496C262.724 75.8933 264.078 73.8226 265.092 71.4964C265.481 70.607 265.819 69.6811 266.112 68.7188C264.398 71.3915 262.18 73.704 259.584 75.5147C255.648 78.2604 250.843 79.8659 245.595 79.8659C238.857 79.8659 232.759 77.143 228.343 72.737C224.078 68.4816 221.385 62.6526 221.207 56.1987ZM216.754 54.8532H221.207C221.385 48.3994 224.078 42.5749 228.343 38.3149C232.759 33.909 238.857 31.1861 245.595 31.1861C250.843 31.1861 255.648 32.7915 259.584 35.5373C262.18 37.348 264.398 39.6605 266.112 42.3332C265.819 41.3708 265.481 40.4449 265.092 39.5601C264.073 37.2203 262.711 35.1405 260.955 33.2796L260.914 33.234C259.159 31.1496 256.992 29.4939 254.363 28.3765C251.876 27.3183 248.969 26.7436 245.595 26.7436C237.627 26.7436 230.414 29.9637 225.193 35.1724C220.123 40.2351 216.928 47.1725 216.754 54.8532ZM222.56 54.8532H227.017C227.191 50.0003 229.234 45.6217 232.448 42.4108C235.812 39.0538 240.462 36.9786 245.595 36.9786C250.88 36.9786 255.41 39.0356 258.674 42.2922C261.947 45.5579 263.945 50.0368 264.164 54.8532H267.195L267.2 47.5373C265.563 43.0858 262.619 39.291 258.811 36.6365C255.104 34.0458 250.56 32.5316 245.595 32.5316C239.232 32.5316 233.467 35.1085 229.298 39.2682C225.275 43.2819 222.734 48.7734 222.56 54.8532ZM262.834 55.5739V55.4781C262.775 50.7894 260.887 46.4062 257.719 43.2454C254.697 40.2306 250.5 38.3241 245.595 38.3241C240.832 38.3241 236.521 40.2488 233.403 43.364C230.286 46.4746 228.352 50.7757 228.352 55.5283C228.352 60.2763 230.286 64.5773 233.403 67.688C236.521 70.8032 240.832 72.7279 245.595 72.7279C250.5 72.7279 254.697 70.8214 257.719 67.8066C260.887 64.6458 262.775 60.2626 262.834 55.5739ZM262.103 32.5407C263.886 34.47 265.28 36.6137 266.327 39.0219C266.651 39.7608 266.939 40.527 267.2 41.3161V34.2876L262.103 29.202V32.5407ZM272.667 28.2533H263.058L267.863 33.047L272.667 28.2533Z" fill="#323232"/>
</g>
<defs>
<clipPath id="clip0">
<rect width="496" height="213" fill="white"/>
</clipPath>
</defs>
</svg>
