<svg width="30" height="48" viewBox="0 0 30 48" fill="none" xmlns="http://www.w3.org/2000/svg">
<path d="M22.582 15.4032H25.5552C25.4607 12.3628 24.265 9.76599 22.3881 7.88952C20.3522 5.85385 17.5157 4.66116 14.4133 4.66116H4.9594L7.92758 7.7799H14.4133C16.7029 7.7799 18.7761 8.62027 20.2627 10.0713C21.6225 11.3997 22.4901 13.2345 22.582 15.4032ZM26.2885 15.4032H29.2617C29.1647 11.4102 27.5837 7.80339 25.0779 5.17007C22.4901 2.45324 18.9128 0.7699 14.9627 0.7699H1.2529L4.22357 3.89126H14.4133C17.7047 3.89126 20.7226 5.16224 22.8928 7.33101C24.9113 9.34841 26.1966 12.1383 26.2885 15.4032ZM29.2617 16.1731H26.2885C26.1941 19.4641 24.884 22.4367 22.8132 24.6081C20.6629 26.8656 17.6922 28.2645 14.4133 28.2645H4.95691L7.92758 31.3832H14.9627C18.8731 31.3832 22.418 29.5955 24.9983 26.7821C27.5514 24.0026 29.1647 20.221 29.2617 16.1731ZM25.5552 16.1731H22.582C22.4901 18.3915 21.5951 20.3906 20.1956 21.8599C18.7164 23.4128 16.6705 24.3732 14.4133 24.3732H7.92758L4.9594 27.492H14.4133C17.4909 27.492 20.2776 26.1818 22.2962 24.0652C24.2327 22.0296 25.4607 19.2527 25.5552 16.1731ZM30 15.7869C30 20.1818 28.2872 24.308 25.5278 27.3145C22.8107 30.274 19.0794 32.1531 14.9627 32.1531H8.14385V47.6164C8.14385 47.8278 7.97978 48 7.77842 48H0.367915C0.16407 48 0 47.8278 0 47.6164V0.386255C0 0.172249 0.16407 0 0.367915 0H14.9627C19.1142 0 22.8754 1.76686 25.595 4.62462C28.317 7.48238 30 11.4284 30 15.7869ZM4.43736 5.204V26.9517L7.41051 23.8304V8.32275L4.43736 5.204ZM4.43736 28.8073V43.5659L7.41051 46.6847V31.9287L4.43736 28.8073ZM3.7065 43.5659V4.43671L0.733344 1.31535V46.6847L3.7065 43.5659ZM4.07193 44.2706L1.2529 47.2301H6.89095L4.07193 44.2706ZM8.14385 8.5498V23.6033H14.4133C16.4692 23.6033 18.3311 22.729 19.676 21.3145C21.0234 19.9026 21.8561 17.9478 21.8561 15.7895C21.8561 13.6781 21.0582 11.8982 19.763 10.6325C18.4107 9.31449 16.5164 8.5498 14.4133 8.5498H8.14385Z" fill="#323232"/>
</svg>
