<svg width="72" height="56" viewBox="0 0 72 56" fill="none" xmlns="http://www.w3.org/2000/svg">
<path d="M70.5052 55.2403V55.386H70.6396C70.6693 55.386 70.6948 55.379 70.7132 55.3677C70.7302 55.3563 70.7401 55.3365 70.7401 55.3125C70.7401 55.2884 70.7302 55.27 70.7132 55.2587C70.6948 55.246 70.6693 55.2403 70.6396 55.2403H70.5052ZM70.6411 55.1385C70.7104 55.1385 70.7641 55.154 70.8023 55.1852C70.8405 55.2163 70.8589 55.2587 70.8589 55.3125C70.8589 55.3578 70.8448 55.3945 70.8136 55.4242C70.7839 55.4525 70.7415 55.4709 70.6849 55.478L70.8632 55.6831H70.7245L70.559 55.4794H70.5052V55.6831H70.3893V55.1385H70.6411ZM70.6057 55.8713C70.6693 55.8713 70.7288 55.8585 70.7825 55.8345C70.8377 55.8104 70.8858 55.7779 70.9268 55.7369C70.9678 55.6959 71.0004 55.6478 71.0244 55.5912C71.0471 55.536 71.0598 55.4766 71.0598 55.4129C71.0598 55.3493 71.0471 55.2899 71.0244 55.2347C71.0004 55.1795 70.9678 55.13 70.9268 55.089C70.8858 55.0479 70.8377 55.0154 70.7825 54.9914C70.7288 54.9687 70.6693 54.9574 70.6057 54.9574C70.542 54.9574 70.4812 54.9687 70.426 54.9914C70.3694 55.0154 70.3199 55.0479 70.2789 55.089C70.2379 55.13 70.2053 55.1795 70.1827 55.2347C70.1587 55.2899 70.1473 55.3493 70.1473 55.4129C70.1473 55.4766 70.1587 55.536 70.1827 55.5912C70.2053 55.6478 70.2379 55.6959 70.2789 55.7369C70.3199 55.7779 70.3694 55.8104 70.426 55.8345C70.4812 55.8585 70.542 55.8713 70.6057 55.8713ZM70.6057 54.8258C70.6891 54.8258 70.7655 54.8414 70.8391 54.8725C70.9113 54.9022 70.9735 54.9447 71.0287 54.9984C71.0824 55.0508 71.1249 55.113 71.156 55.1852C71.1871 55.2559 71.2027 55.3323 71.2027 55.4129C71.2027 55.4936 71.1871 55.5699 71.156 55.6407C71.1249 55.7114 71.0824 55.7737 71.0287 55.8274C70.9735 55.8798 70.9113 55.9222 70.8391 55.9533C70.7655 55.9844 70.6891 56 70.6057 56C70.5208 56 70.443 55.9844 70.3694 55.9533C70.2959 55.9222 70.2322 55.8798 70.1785 55.8274C70.1247 55.7737 70.0823 55.7114 70.0512 55.6407C70.02 55.5699 70.0045 55.4936 70.0045 55.4129C70.0045 55.3323 70.02 55.2559 70.0512 55.1852C70.0823 55.113 70.1247 55.0508 70.1785 54.9984C70.2322 54.9447 70.2959 54.9022 70.3694 54.8725C70.443 54.8414 70.5208 54.8258 70.6057 54.8258ZM15.4899 52.7279C15.4899 51.6896 16.1704 50.8366 17.2823 50.8366C18.3447 50.8366 19.0619 51.6528 19.0619 52.7279C19.0619 53.8031 18.3447 54.6193 17.2823 54.6193C16.1704 54.6193 15.4899 53.7663 15.4899 52.7279ZM20.2728 52.7279V49.7742H18.9883V50.4914C18.5809 49.9595 17.9627 49.6256 17.1224 49.6256C15.4659 49.6256 14.1672 50.9243 14.1672 52.7279C14.1672 54.533 15.4659 55.8302 17.1224 55.8302C17.9627 55.8302 18.5809 55.4964 18.9883 54.9645V55.6817H20.2728V52.7279ZM63.6796 52.7279C63.6796 51.6896 64.3601 50.8366 65.472 50.8366C66.5358 50.8366 67.2516 51.6528 67.2516 52.7279C67.2516 53.8031 66.5358 54.6193 65.472 54.6193C64.3601 54.6193 63.6796 53.7663 63.6796 52.7279ZM68.4639 52.7279V47.4018H67.178V50.4914C66.7706 49.9595 66.1524 49.6256 65.3121 49.6256C63.6556 49.6256 62.3569 50.9243 62.3569 52.7279C62.3569 54.533 63.6556 55.8302 65.3121 55.8302C66.1524 55.8302 66.7706 55.4964 67.178 54.9645V55.6817H68.4639V52.7279ZM36.2172 50.7757C37.0448 50.7757 37.5767 51.2949 37.7125 52.2088H34.647C34.7842 51.3557 35.3019 50.7757 36.2172 50.7757ZM36.2427 49.6256C34.5112 49.6256 33.3002 50.8861 33.3002 52.7279C33.3002 54.6066 34.5607 55.8302 36.329 55.8302C37.2188 55.8302 38.0336 55.6081 38.7508 55.0027L38.1213 54.0506C37.6262 54.4453 36.9953 54.6688 36.4025 54.6688C35.575 54.6688 34.821 54.2855 34.6356 53.2216H39.0224C39.0352 53.0618 39.0479 52.9005 39.0479 52.7279C39.0352 50.8861 37.8978 49.6256 36.2427 49.6256ZM51.7528 52.7279C51.7528 51.6896 52.4332 50.8366 53.5451 50.8366C54.6075 50.8366 55.3248 51.6528 55.3248 52.7279C55.3248 53.8031 54.6075 54.6193 53.5451 54.6193C52.4332 54.6193 51.7528 53.7663 51.7528 52.7279ZM56.5357 52.7279V49.7742H55.2512V50.4914C54.8424 49.9595 54.2256 49.6256 53.3853 49.6256C51.7287 49.6256 50.4301 50.9243 50.4301 52.7279C50.4301 54.533 51.7287 55.8302 53.3853 55.8302C54.2256 55.8302 54.8424 55.4964 55.2512 54.9645V55.6817H56.5357V52.7279ZM44.4985 52.7279C44.4985 54.5203 45.7462 55.8302 47.6503 55.8302C48.5401 55.8302 49.1329 55.6322 49.7751 55.1258L49.1583 54.0874C48.6759 54.434 48.1695 54.6193 47.6121 54.6193C46.5865 54.6066 45.8325 53.8653 45.8325 52.7279C45.8325 51.5906 46.5865 50.8493 47.6121 50.8366C48.1695 50.8366 48.6759 51.0219 49.1583 51.3685L49.7751 50.3301C49.1329 49.8237 48.5401 49.6256 47.6503 49.6256C45.7462 49.6256 44.4985 50.9356 44.4985 52.7279ZM61.0597 49.6256C60.3184 49.6256 59.836 49.9722 59.5022 50.4914V49.7742H58.229V55.6817H59.5149V52.37C59.5149 51.3925 59.9351 50.8493 60.7754 50.8493C61.0357 50.8493 61.3073 50.8861 61.5789 50.9978L61.975 49.7869C61.6906 49.6751 61.32 49.6256 61.0597 49.6256ZM26.626 50.2438C26.0078 49.8364 25.1561 49.6256 24.2168 49.6256C22.7201 49.6256 21.7568 50.3429 21.7568 51.517C21.7568 52.4804 22.474 53.0745 23.7953 53.2598L24.4021 53.3461C25.1066 53.4452 25.4391 53.6305 25.4391 53.9643C25.4391 54.4213 24.9694 54.6816 24.0923 54.6816C23.2025 54.6816 22.5603 54.3972 22.1274 54.0634L21.5219 55.0635C22.2264 55.5827 23.1162 55.8302 24.0796 55.8302C25.7857 55.8302 26.7745 55.0267 26.7745 53.9021C26.7745 52.8637 25.9964 52.3205 24.7105 52.1352L24.1051 52.0475C23.5491 51.9739 23.1035 51.8636 23.1035 51.4675C23.1035 51.0346 23.5236 50.7757 24.2281 50.7757C24.9821 50.7757 25.7121 51.0601 26.07 51.2822L26.626 50.2438ZM43.1999 49.6256C42.4586 49.6256 41.9762 49.9722 41.6438 50.4914V49.7742H40.3706V55.6817H41.6551V52.37C41.6551 51.3925 42.0752 50.8493 42.9155 50.8493C43.1758 50.8493 43.4474 50.8861 43.719 50.9978L44.1151 49.7869C43.8308 49.6751 43.4602 49.6256 43.1999 49.6256ZM32.2378 49.7742H30.1371V47.9818H28.8385V49.7742H27.6403V50.9483H28.8385V53.6432C28.8385 55.014 29.3704 55.8302 30.8897 55.8302C31.447 55.8302 32.0893 55.6577 32.4967 55.3733L32.1261 54.2727C31.7427 54.4948 31.3226 54.6066 30.9887 54.6066C30.3465 54.6066 30.1371 54.2105 30.1371 53.6177V50.9483H32.2378V49.7742ZM13.0313 55.6817V51.9739C13.0313 50.5777 12.1415 49.6384 10.707 49.6256C9.95301 49.6129 9.17496 49.8477 8.63033 50.6767C8.22291 50.0217 7.58066 49.6256 6.67812 49.6256C6.04719 49.6256 5.43041 49.811 4.94802 50.5027V49.7742H3.66211V55.6817H4.95933V52.4068C4.95933 51.3812 5.52802 50.8366 6.40651 50.8366C7.25954 50.8366 7.691 51.3925 7.691 52.3941V55.6817H8.98964V52.4068C8.98964 51.3812 9.58237 50.8366 10.4354 50.8366C11.3125 50.8366 11.7326 51.3925 11.7326 52.3941V55.6817H13.0313Z" fill="#231F20"/>
<path d="M71.2982 36.0352V35.1722H71.0733L70.813 35.765L70.5541 35.1722H70.3278V36.0352H70.4876V35.3844L70.731 35.946H70.8965L71.1398 35.383V36.0352H71.2982ZM69.8709 36.0352V35.3193H70.1594V35.1736H69.4238V35.3193H69.7124V36.0352H69.8709Z" fill="#F79410"/>
<path d="M45.7216 39.7466H26.2539V4.75977H45.7216V39.7466Z" fill="#FF5F00"/>
<path d="M27.5006 22.2511C27.5006 15.1538 30.8236 8.83181 35.9983 4.75764C32.2142 1.77842 27.4384 0.000213623 22.248 0.000213623C9.96048 0.000213623 0 9.9621 0 22.2511C0 34.5401 9.96048 44.502 22.248 44.502C27.4384 44.502 32.2142 42.7238 35.9983 39.7445C30.8236 35.6704 27.5006 29.3483 27.5006 22.2511Z" fill="#EB001B"/>
<path d="M71.9763 22.2511C71.9763 34.5401 62.0158 44.502 49.7283 44.502C44.538 44.502 39.7621 42.7238 35.9766 39.7445C41.1527 35.6704 44.4757 29.3483 44.4757 22.2511C44.4757 15.1538 41.1527 8.83181 35.9766 4.75764C39.7621 1.77842 44.538 0.000213623 49.7283 0.000213623C62.0158 0.000213623 71.9763 9.9621 71.9763 22.2511Z" fill="#F79E1B"/>
</svg>
