<svg width="112" height="36" viewBox="0 0 112 36" fill="none" xmlns="http://www.w3.org/2000/svg">
<path d="M48.2022 35.4798H39.1914L44.8274 0.630859H53.8378L48.2022 35.4798Z" fill="#00579F"/>
<path d="M80.864 1.48366C79.0867 0.778539 76.2677 0 72.782 0C63.8835 0 57.6173 4.74514 57.5789 11.5293C57.5049 16.5346 62.0653 19.3146 65.4761 20.9836C68.9623 22.689 70.1473 23.8021 70.1473 25.3222C70.1118 27.6568 67.3303 28.733 64.736 28.733C61.1384 28.733 59.2108 28.1782 56.2815 26.8793L55.0949 26.3225L53.834 34.1453C55.9474 35.1081 59.841 35.9626 63.8835 36C73.3383 36 79.4937 31.3283 79.5666 24.0987C79.6026 20.1316 77.1946 17.0919 72.003 14.6079C68.8514 13.0134 66.9213 11.9382 66.9213 10.3068C66.9583 8.8236 68.5538 7.30446 72.1114 7.30446C75.0408 7.23006 77.1931 7.93419 78.8236 8.63882L79.6386 9.00887L80.864 1.48366Z" fill="#00579F"/>
<path d="M92.8416 23.1341C93.5837 21.132 96.4392 13.3836 96.4392 13.3836C96.4017 13.458 97.1798 11.3446 97.6247 10.0472L98.2545 13.05C98.2545 13.05 99.9608 21.3917 100.331 23.1341C98.9231 23.1341 94.6214 23.1341 92.8416 23.1341ZM103.964 0.630859H96.9945C94.8451 0.630859 93.2122 1.26059 92.2848 3.52229L78.9004 35.4793H88.3552C88.3552 35.4793 89.9118 31.1781 90.2464 30.2518C91.2836 30.2518 100.481 30.2518 101.816 30.2518C102.074 31.4753 102.891 35.4793 102.891 35.4793H111.234L103.964 0.630859Z" fill="#00579F"/>
<path d="M31.661 0.630859L22.8365 24.3945L21.8721 19.575C20.2407 14.0138 15.124 7.97179 9.41406 4.96751L17.4971 35.4428H27.0258L41.1893 0.630859H31.661Z" fill="#00579F"/>
<path d="M14.6459 0.630859H0.148316L0 1.33499C11.309 4.22692 18.7987 11.1978 21.8759 19.5764L18.7243 3.56023C18.2055 1.3345 16.6109 0.704278 14.6459 0.630859Z" fill="#FAA61A"/>
</svg>
