<svg width="40" height="40" viewBox="0 0 40 40" fill="none" xmlns="http://www.w3.org/2000/svg">
<circle cx="20" cy="20" r="20" fill="#0088CC"/>
<path fill-rule="evenodd" clip-rule="evenodd" d="M11.2443 19.4574C16.103 17.3406 19.3428 15.945 20.9639 15.2707C25.5924 13.3456 26.5542 13.0112 27.181 13.0001C27.3189 12.9977 27.6272 13.0319 27.8269 13.1939C27.9955 13.3307 28.0419 13.5155 28.0641 13.6452C28.0863 13.775 28.1139 14.0705 28.092 14.3014C27.8411 16.9368 26.7558 23.3322 26.2037 26.2838C25.9701 27.5328 25.51 27.9516 25.0647 27.9926C24.0968 28.0816 23.3619 27.3529 22.4244 26.7384C20.9576 25.7769 20.1289 25.1783 18.705 24.24C17.0595 23.1556 18.1262 22.5596 19.064 21.5856C19.3094 21.3307 23.5738 17.4519 23.6564 17.1C23.6667 17.056 23.6763 16.892 23.5788 16.8054C23.4814 16.7187 23.3375 16.7483 23.2338 16.7719C23.0866 16.8053 20.7433 18.3542 16.2036 21.4185C15.5385 21.8753 14.936 22.0978 14.3962 22.0862C13.8011 22.0733 12.6564 21.7497 11.8054 21.4731C10.7617 21.1338 9.93215 20.9544 10.0044 20.3782C10.042 20.0781 10.4553 19.7711 11.2443 19.4574Z" fill="white"/>
</svg>
