<svg width="20" height="19" viewBox="0 0 20 19" fill="none" xmlns="http://www.w3.org/2000/svg">
<path d="M9.75004 -3.43323e-05C7.16997 -3.43323e-05 6.84645 0.0109024 5.83317 0.0571346C4.82201 0.103256 4.13142 0.263863 3.52713 0.498686C2.90242 0.741465 2.37264 1.0663 1.84449 1.59444C1.31635 2.12257 0.991511 2.6524 0.748735 3.27711C0.513899 3.88138 0.353306 4.57197 0.307155 5.58314C0.26093 6.59642 0.25 6.91993 0.25 9.5C0.25 12.08 0.26093 12.4036 0.307155 13.4168C0.353306 14.428 0.513899 15.1186 0.748735 15.7229C0.991511 16.3476 1.31635 16.8774 1.84449 17.4055C2.37264 17.9337 2.90242 18.2585 3.52713 18.5013C4.13142 18.7361 4.82201 18.8967 5.83317 18.9428C6.84645 18.9891 7.16997 19 9.75004 19C12.3301 19 12.6536 18.9891 13.6669 18.9428C14.678 18.8967 15.3686 18.7361 15.9729 18.5013C16.5976 18.2585 17.1274 17.9337 17.6556 17.4055C18.1837 16.8774 18.5085 16.3476 18.7513 15.7229C18.9861 15.1186 19.1467 14.428 19.1929 13.4168C19.2391 12.4036 19.25 12.08 19.25 9.5C19.25 6.91993 19.2391 6.59642 19.1929 5.58314C19.1467 4.57197 18.9861 3.88138 18.7513 3.27711C18.5085 2.6524 18.1837 2.12257 17.6556 1.59444C17.1274 1.0663 16.5976 0.741465 15.9729 0.498686C15.3686 0.263863 14.678 0.103256 13.6669 0.0571346C12.6536 0.0109024 12.3301 -3.43323e-05 9.75004 -3.43323e-05ZM9.75004 1.71168C12.2866 1.71168 12.5871 1.72137 13.5888 1.76707C14.5151 1.80931 15.0181 1.96408 15.3529 2.09418C15.7963 2.26651 16.1128 2.47237 16.4452 2.80479C16.7776 3.13724 16.9835 3.45371 17.1558 3.89715C17.2859 4.2319 17.4407 4.73492 17.4829 5.66116C17.5286 6.6629 17.5383 6.96338 17.5383 9.5C17.5383 12.0366 17.5286 12.3371 17.4829 13.3388C17.4407 14.265 17.2859 14.7681 17.1558 15.1028C16.9835 15.5463 16.7776 15.8627 16.4452 16.1951C16.1128 16.5276 15.7963 16.7335 15.3529 16.9058C15.0181 17.0359 14.5151 17.1907 13.5888 17.2329C12.5873 17.2786 12.2868 17.2883 9.75004 17.2883C7.21322 17.2883 6.91282 17.2786 5.9112 17.2329C4.98495 17.1907 4.48193 17.0359 4.14718 16.9058C3.70374 16.7335 3.38728 16.5276 3.05486 16.1951C2.72243 15.8627 2.51654 15.5463 2.34421 15.1028C2.21411 14.7681 2.05936 14.265 2.0171 13.3388C1.97139 12.3371 1.96171 12.0366 1.96171 9.5C1.96171 6.96338 1.97139 6.6629 2.0171 5.66116C2.05936 4.73492 2.21411 4.2319 2.34421 3.89715C2.51654 3.45371 2.72242 3.13724 3.05484 2.80483C3.38728 2.47237 3.70374 2.26651 4.14718 2.09418C4.48193 1.96408 4.98495 1.80931 5.9112 1.76707C6.91293 1.72137 7.21341 1.71168 9.75004 1.71168Z" fill="#C8C8C8"/>
<path d="M9.75005 12.6667C8.00111 12.6667 6.58335 11.2489 6.58335 9.50005C6.58335 7.75112 8.00111 6.33336 9.75005 6.33336C11.4989 6.33336 12.9167 7.75112 12.9167 9.50005C12.9167 11.2489 11.4989 12.6667 9.75005 12.6667ZM9.75005 4.62165C7.05575 4.62165 4.87164 6.80576 4.87164 9.50005C4.87164 12.1943 7.05575 14.3784 9.75005 14.3784C12.4443 14.3784 14.6284 12.1943 14.6284 9.50005C14.6284 6.80576 12.4443 4.62165 9.75005 4.62165Z" fill="#C8C8C8"/>
<path d="M15.9612 4.42886C15.9612 5.05848 15.4508 5.56885 14.8211 5.56885C14.1916 5.56885 13.6812 5.05848 13.6812 4.42886C13.6812 3.79925 14.1916 3.28884 14.8211 3.28884C15.4508 3.28884 15.9612 3.79925 15.9612 4.42886Z" fill="#C8C8C8"/>
</svg>
