<svg width="19" height="11" viewBox="0 0 19 11" fill="none" xmlns="http://www.w3.org/2000/svg">
<path fill-rule="evenodd" clip-rule="evenodd" d="M18.3192 0.763344C18.4564 0.332739 18.3192 0.0195727 17.7117 0.0195727H15.6931C15.1836 0.0195727 14.9484 0.293594 14.8112 0.587189C14.8112 0.587189 13.7725 3.09253 12.3223 4.71708C11.8519 5.18683 11.6364 5.34342 11.3816 5.34342C11.2444 5.34342 11.068 5.18683 11.068 4.75623V0.743771C11.068 0.234875 10.9112 0 10.4801 0H7.30523C6.99166 0 6.79569 0.234874 6.79569 0.46975C6.79569 0.959074 7.5208 1.07651 7.5992 2.44662V5.42171C7.5992 6.06762 7.48161 6.18505 7.22684 6.18505C6.54091 6.18505 4.87509 3.66014 3.8756 0.782918C3.67962 0.215302 3.48365 0 2.9741 0H0.935925C0.347989 0 0.25 0.27402 0.25 0.567614C0.25 1.09608 0.935925 3.75801 3.44445 7.28114C5.11027 9.68861 7.48161 10.9804 9.61777 10.9804C10.9112 10.9804 11.068 10.6868 11.068 10.1975V8.37723C11.068 7.79004 11.1856 7.69217 11.5972 7.69217C11.8911 7.69217 12.4203 7.84875 13.6157 9.00356C14.9876 10.3737 15.2228 11 15.9871 11H18.0057C18.5936 11 18.868 10.7064 18.7112 10.1388C18.5348 9.57118 17.8685 8.74911 17.0062 7.77046C16.5358 7.22242 15.8303 6.61566 15.6147 6.32207C15.3208 5.93061 15.3991 5.77402 15.6147 5.42171C15.5951 5.42171 18.0644 1.93772 18.3192 0.763344Z" fill="#C8C8C8"/>
</svg>
