<svg width="20" height="22" viewBox="0 0 20 22" fill="none" xmlns="http://www.w3.org/2000/svg">
<path fill-rule="evenodd" clip-rule="evenodd" d="M19.9997 3.81817L4.37311e-07 3.81818L0 1.81818L19.9997 1.81817L19.9997 3.81817Z" fill="#DCDCDC"/>
<path fill-rule="evenodd" clip-rule="evenodd" d="M18.1818 19.0014V2.81989H1.81836V19.0014C1.81836 20.106 2.71379 21.0014 3.81836 21.0014H16.1818C17.2863 21.0014 18.1818 20.106 18.1818 19.0014ZM9.00042 5.54563L9.00042 18.2727L11.0004 18.2727L11.0004 5.54563H9.00042ZM4.45503 18.2727V5.54563H6.45503V18.2727L4.45503 18.2727ZM13.5458 5.54563V18.2727H15.5458V5.54563H13.5458Z" fill="#DCDCDC"/>
<path fill-rule="evenodd" clip-rule="evenodd" d="M13.6359 2L6.36328 2L6.36328 0L13.6359 0V2Z" fill="#DCDCDC"/>
</svg>
